M48
; DRILL file {KiCad (5.1.12)-1} date 06/22/22 11:18:00
; FORMAT={-:-/ absolute / inch / decimal}
; #@! TF.CreationDate,2022-06-22T11:18:00+02:00
; #@! TF.GenerationSoftware,Kicad,Pcbnew,(5.1.12)-1
; #@! TF.FileFunction,Plated,1,2,PTH
FMAT,2
INCH
T1C0.0394
%
G90
G05
T1
X4.7Y-3.0219
X4.7Y-3.1219
X4.7Y-3.2219
X4.7Y-3.3219
X4.7Y-3.4219
X4.7Y-3.5219
X4.7Y-3.6219
X4.7Y-3.7219
X4.7Y-3.8219
X4.7Y-3.9219
X4.7Y-4.0219
X4.7Y-4.1219
X5.9Y-3.0219
X5.9Y-3.1219
X5.9Y-3.2219
X5.9Y-3.3219
X5.9Y-3.4219
X5.9Y-3.5219
X5.9Y-3.6219
X5.9Y-3.7219
X5.9Y-3.8219
X5.9Y-3.9219
X5.9Y-4.0219
X5.9Y-4.1219
T0
M30
