%TF.GenerationSoftware,KiCad,Pcbnew,(5.1.12)-1*%
%TF.CreationDate,2022-06-22T11:17:58+02:00*%
%TF.ProjectId,ai-thinker-vc01,61692d74-6869-46e6-9b65-722d76633031,rev?*%
%TF.SameCoordinates,Original*%
%TF.FileFunction,Copper,L2,Bot*%
%TF.FilePolarity,Positive*%
%FSLAX46Y46*%
G04 Gerber Fmt 4.6, Leading zero omitted, Abs format (unit mm)*
G04 Created by KiCad (PCBNEW (5.1.12)-1) date 2022-06-22 11:17:58*
%MOMM*%
%LPD*%
G01*
G04 APERTURE LIST*
%TA.AperFunction,ComponentPad*%
%ADD10O,1.700000X1.700000*%
%TD*%
%TA.AperFunction,ComponentPad*%
%ADD11R,1.700000X1.700000*%
%TD*%
%TA.AperFunction,Conductor*%
%ADD12C,0.254000*%
%TD*%
%TA.AperFunction,Conductor*%
%ADD13C,0.100000*%
%TD*%
G04 APERTURE END LIST*
D10*
%TO.P,J2,12*%
%TO.N,Net-(J2-Pad12)*%
X149860000Y-104695001D03*
%TO.P,J2,11*%
%TO.N,Net-(J2-Pad11)*%
X149860000Y-102155001D03*
%TO.P,J2,10*%
%TO.N,Net-(J2-Pad10)*%
X149860000Y-99615001D03*
%TO.P,J2,9*%
%TO.N,Net-(J2-Pad9)*%
X149860000Y-97075001D03*
%TO.P,J2,8*%
%TO.N,Net-(J2-Pad8)*%
X149860000Y-94535001D03*
%TO.P,J2,7*%
%TO.N,Net-(J2-Pad7)*%
X149860000Y-91995001D03*
%TO.P,J2,6*%
%TO.N,Net-(J2-Pad6)*%
X149860000Y-89455001D03*
%TO.P,J2,5*%
%TO.N,Net-(J2-Pad5)*%
X149860000Y-86915001D03*
%TO.P,J2,4*%
%TO.N,Net-(J2-Pad4)*%
X149860000Y-84375001D03*
%TO.P,J2,3*%
%TO.N,Net-(J2-Pad3)*%
X149860000Y-81835001D03*
%TO.P,J2,2*%
%TO.N,Net-(J2-Pad2)*%
X149860000Y-79295001D03*
D11*
%TO.P,J2,1*%
%TO.N,Net-(J2-Pad1)*%
X149860000Y-76755001D03*
%TD*%
%TO.P,J1,1*%
%TO.N,Net-(J1-Pad1)*%
X119380000Y-76755001D03*
D10*
%TO.P,J1,2*%
%TO.N,GND*%
X119380000Y-79295001D03*
%TO.P,J1,3*%
%TO.N,Net-(J1-Pad3)*%
X119380000Y-81835001D03*
%TO.P,J1,4*%
%TO.N,Net-(J1-Pad4)*%
X119380000Y-84375001D03*
%TO.P,J1,5*%
%TO.N,Net-(J1-Pad5)*%
X119380000Y-86915001D03*
%TO.P,J1,6*%
%TO.N,Net-(J1-Pad6)*%
X119380000Y-89455001D03*
%TO.P,J1,7*%
%TO.N,Net-(J1-Pad7)*%
X119380000Y-91995001D03*
%TO.P,J1,8*%
%TO.N,GND*%
X119380000Y-94535001D03*
%TO.P,J1,9*%
%TO.N,Net-(J1-Pad9)*%
X119380000Y-97075001D03*
%TO.P,J1,10*%
%TO.N,Net-(J1-Pad10)*%
X119380000Y-99615001D03*
%TO.P,J1,11*%
%TO.N,Net-(J1-Pad11)*%
X119380000Y-102155001D03*
%TO.P,J1,12*%
%TO.N,Net-(J1-Pad12)*%
X119380000Y-104695001D03*
%TD*%
D12*
%TO.N,GND*%
X148420498Y-75660821D02*
X148384188Y-75780519D01*
X148371928Y-75905001D01*
X148371928Y-77605001D01*
X148384188Y-77729483D01*
X148420498Y-77849181D01*
X148479463Y-77959495D01*
X148558815Y-78056186D01*
X148655506Y-78135538D01*
X148765820Y-78194503D01*
X148838380Y-78216514D01*
X148706525Y-78348369D01*
X148544010Y-78591590D01*
X148432068Y-78861843D01*
X148375000Y-79148741D01*
X148375000Y-79441261D01*
X148432068Y-79728159D01*
X148544010Y-79998412D01*
X148706525Y-80241633D01*
X148913368Y-80448476D01*
X149087760Y-80565001D01*
X148913368Y-80681526D01*
X148706525Y-80888369D01*
X148544010Y-81131590D01*
X148432068Y-81401843D01*
X148375000Y-81688741D01*
X148375000Y-81981261D01*
X148432068Y-82268159D01*
X148544010Y-82538412D01*
X148706525Y-82781633D01*
X148913368Y-82988476D01*
X149087760Y-83105001D01*
X148913368Y-83221526D01*
X148706525Y-83428369D01*
X148544010Y-83671590D01*
X148432068Y-83941843D01*
X148375000Y-84228741D01*
X148375000Y-84521261D01*
X148432068Y-84808159D01*
X148544010Y-85078412D01*
X148706525Y-85321633D01*
X148913368Y-85528476D01*
X149087760Y-85645001D01*
X148913368Y-85761526D01*
X148706525Y-85968369D01*
X148544010Y-86211590D01*
X148432068Y-86481843D01*
X148375000Y-86768741D01*
X148375000Y-87061261D01*
X148432068Y-87348159D01*
X148544010Y-87618412D01*
X148706525Y-87861633D01*
X148913368Y-88068476D01*
X149087760Y-88185001D01*
X148913368Y-88301526D01*
X148706525Y-88508369D01*
X148544010Y-88751590D01*
X148432068Y-89021843D01*
X148375000Y-89308741D01*
X148375000Y-89601261D01*
X148432068Y-89888159D01*
X148544010Y-90158412D01*
X148706525Y-90401633D01*
X148913368Y-90608476D01*
X149087760Y-90725001D01*
X148913368Y-90841526D01*
X148706525Y-91048369D01*
X148544010Y-91291590D01*
X148432068Y-91561843D01*
X148375000Y-91848741D01*
X148375000Y-92141261D01*
X148432068Y-92428159D01*
X148544010Y-92698412D01*
X148706525Y-92941633D01*
X148913368Y-93148476D01*
X149087760Y-93265001D01*
X148913368Y-93381526D01*
X148706525Y-93588369D01*
X148544010Y-93831590D01*
X148432068Y-94101843D01*
X148375000Y-94388741D01*
X148375000Y-94681261D01*
X148432068Y-94968159D01*
X148544010Y-95238412D01*
X148706525Y-95481633D01*
X148913368Y-95688476D01*
X149087760Y-95805001D01*
X148913368Y-95921526D01*
X148706525Y-96128369D01*
X148544010Y-96371590D01*
X148432068Y-96641843D01*
X148375000Y-96928741D01*
X148375000Y-97221261D01*
X148432068Y-97508159D01*
X148544010Y-97778412D01*
X148706525Y-98021633D01*
X148913368Y-98228476D01*
X149087760Y-98345001D01*
X148913368Y-98461526D01*
X148706525Y-98668369D01*
X148544010Y-98911590D01*
X148432068Y-99181843D01*
X148375000Y-99468741D01*
X148375000Y-99761261D01*
X148432068Y-100048159D01*
X148544010Y-100318412D01*
X148706525Y-100561633D01*
X148913368Y-100768476D01*
X149087760Y-100885001D01*
X148913368Y-101001526D01*
X148706525Y-101208369D01*
X148544010Y-101451590D01*
X148432068Y-101721843D01*
X148375000Y-102008741D01*
X148375000Y-102301261D01*
X148432068Y-102588159D01*
X148544010Y-102858412D01*
X148706525Y-103101633D01*
X148913368Y-103308476D01*
X149087760Y-103425001D01*
X148913368Y-103541526D01*
X148706525Y-103748369D01*
X148544010Y-103991590D01*
X148432068Y-104261843D01*
X148375000Y-104548741D01*
X148375000Y-104841261D01*
X148432068Y-105128159D01*
X148544010Y-105398412D01*
X148706525Y-105641633D01*
X148913368Y-105848476D01*
X149156589Y-106010991D01*
X149178339Y-106020000D01*
X120061661Y-106020000D01*
X120083411Y-106010991D01*
X120326632Y-105848476D01*
X120533475Y-105641633D01*
X120695990Y-105398412D01*
X120807932Y-105128159D01*
X120865000Y-104841261D01*
X120865000Y-104548741D01*
X120807932Y-104261843D01*
X120695990Y-103991590D01*
X120533475Y-103748369D01*
X120326632Y-103541526D01*
X120152240Y-103425001D01*
X120326632Y-103308476D01*
X120533475Y-103101633D01*
X120695990Y-102858412D01*
X120807932Y-102588159D01*
X120865000Y-102301261D01*
X120865000Y-102008741D01*
X120807932Y-101721843D01*
X120695990Y-101451590D01*
X120533475Y-101208369D01*
X120326632Y-101001526D01*
X120152240Y-100885001D01*
X120326632Y-100768476D01*
X120533475Y-100561633D01*
X120695990Y-100318412D01*
X120807932Y-100048159D01*
X120865000Y-99761261D01*
X120865000Y-99468741D01*
X120807932Y-99181843D01*
X120695990Y-98911590D01*
X120533475Y-98668369D01*
X120326632Y-98461526D01*
X120152240Y-98345001D01*
X120326632Y-98228476D01*
X120533475Y-98021633D01*
X120695990Y-97778412D01*
X120807932Y-97508159D01*
X120865000Y-97221261D01*
X120865000Y-96928741D01*
X120807932Y-96641843D01*
X120695990Y-96371590D01*
X120533475Y-96128369D01*
X120326632Y-95921526D01*
X120144466Y-95799806D01*
X120261355Y-95730179D01*
X120477588Y-95535270D01*
X120651641Y-95301921D01*
X120776825Y-95039100D01*
X120821476Y-94891891D01*
X120700155Y-94662001D01*
X119507000Y-94662001D01*
X119507000Y-94682001D01*
X119253000Y-94682001D01*
X119253000Y-94662001D01*
X118059845Y-94662001D01*
X117938524Y-94891891D01*
X117983175Y-95039100D01*
X118108359Y-95301921D01*
X118282412Y-95535270D01*
X118498645Y-95730179D01*
X118615534Y-95799806D01*
X118433368Y-95921526D01*
X118226525Y-96128369D01*
X118064010Y-96371590D01*
X117952068Y-96641843D01*
X117895000Y-96928741D01*
X117895000Y-97221261D01*
X117952068Y-97508159D01*
X118064010Y-97778412D01*
X118226525Y-98021633D01*
X118433368Y-98228476D01*
X118607760Y-98345001D01*
X118433368Y-98461526D01*
X118226525Y-98668369D01*
X118064010Y-98911590D01*
X117952068Y-99181843D01*
X117895000Y-99468741D01*
X117895000Y-99761261D01*
X117952068Y-100048159D01*
X118064010Y-100318412D01*
X118226525Y-100561633D01*
X118433368Y-100768476D01*
X118607760Y-100885001D01*
X118433368Y-101001526D01*
X118226525Y-101208369D01*
X118064010Y-101451590D01*
X117952068Y-101721843D01*
X117895000Y-102008741D01*
X117895000Y-102301261D01*
X117952068Y-102588159D01*
X118064010Y-102858412D01*
X118226525Y-103101633D01*
X118433368Y-103308476D01*
X118607760Y-103425001D01*
X118433368Y-103541526D01*
X118226525Y-103748369D01*
X118064010Y-103991590D01*
X117952068Y-104261843D01*
X117895000Y-104548741D01*
X117895000Y-104841261D01*
X117952068Y-105128159D01*
X118064010Y-105398412D01*
X118226525Y-105641633D01*
X118433368Y-105848476D01*
X118676589Y-106010991D01*
X118698339Y-106020000D01*
X118142279Y-106020000D01*
X117992131Y-106005278D01*
X117878754Y-105971047D01*
X117774183Y-105915446D01*
X117682405Y-105840594D01*
X117606909Y-105749335D01*
X117550581Y-105645160D01*
X117515560Y-105532024D01*
X117500000Y-105383979D01*
X117500000Y-81688741D01*
X117895000Y-81688741D01*
X117895000Y-81981261D01*
X117952068Y-82268159D01*
X118064010Y-82538412D01*
X118226525Y-82781633D01*
X118433368Y-82988476D01*
X118607760Y-83105001D01*
X118433368Y-83221526D01*
X118226525Y-83428369D01*
X118064010Y-83671590D01*
X117952068Y-83941843D01*
X117895000Y-84228741D01*
X117895000Y-84521261D01*
X117952068Y-84808159D01*
X118064010Y-85078412D01*
X118226525Y-85321633D01*
X118433368Y-85528476D01*
X118607760Y-85645001D01*
X118433368Y-85761526D01*
X118226525Y-85968369D01*
X118064010Y-86211590D01*
X117952068Y-86481843D01*
X117895000Y-86768741D01*
X117895000Y-87061261D01*
X117952068Y-87348159D01*
X118064010Y-87618412D01*
X118226525Y-87861633D01*
X118433368Y-88068476D01*
X118607760Y-88185001D01*
X118433368Y-88301526D01*
X118226525Y-88508369D01*
X118064010Y-88751590D01*
X117952068Y-89021843D01*
X117895000Y-89308741D01*
X117895000Y-89601261D01*
X117952068Y-89888159D01*
X118064010Y-90158412D01*
X118226525Y-90401633D01*
X118433368Y-90608476D01*
X118607760Y-90725001D01*
X118433368Y-90841526D01*
X118226525Y-91048369D01*
X118064010Y-91291590D01*
X117952068Y-91561843D01*
X117895000Y-91848741D01*
X117895000Y-92141261D01*
X117952068Y-92428159D01*
X118064010Y-92698412D01*
X118226525Y-92941633D01*
X118433368Y-93148476D01*
X118615534Y-93270196D01*
X118498645Y-93339823D01*
X118282412Y-93534732D01*
X118108359Y-93768081D01*
X117983175Y-94030902D01*
X117938524Y-94178111D01*
X118059845Y-94408001D01*
X119253000Y-94408001D01*
X119253000Y-94388001D01*
X119507000Y-94388001D01*
X119507000Y-94408001D01*
X120700155Y-94408001D01*
X120821476Y-94178111D01*
X120776825Y-94030902D01*
X120651641Y-93768081D01*
X120477588Y-93534732D01*
X120261355Y-93339823D01*
X120144466Y-93270196D01*
X120326632Y-93148476D01*
X120533475Y-92941633D01*
X120695990Y-92698412D01*
X120807932Y-92428159D01*
X120865000Y-92141261D01*
X120865000Y-91848741D01*
X120807932Y-91561843D01*
X120695990Y-91291590D01*
X120533475Y-91048369D01*
X120326632Y-90841526D01*
X120152240Y-90725001D01*
X120326632Y-90608476D01*
X120533475Y-90401633D01*
X120695990Y-90158412D01*
X120807932Y-89888159D01*
X120865000Y-89601261D01*
X120865000Y-89308741D01*
X120807932Y-89021843D01*
X120695990Y-88751590D01*
X120533475Y-88508369D01*
X120326632Y-88301526D01*
X120152240Y-88185001D01*
X120326632Y-88068476D01*
X120533475Y-87861633D01*
X120695990Y-87618412D01*
X120807932Y-87348159D01*
X120865000Y-87061261D01*
X120865000Y-86768741D01*
X120807932Y-86481843D01*
X120695990Y-86211590D01*
X120533475Y-85968369D01*
X120326632Y-85761526D01*
X120152240Y-85645001D01*
X120326632Y-85528476D01*
X120533475Y-85321633D01*
X120695990Y-85078412D01*
X120807932Y-84808159D01*
X120865000Y-84521261D01*
X120865000Y-84228741D01*
X120807932Y-83941843D01*
X120695990Y-83671590D01*
X120533475Y-83428369D01*
X120326632Y-83221526D01*
X120152240Y-83105001D01*
X120326632Y-82988476D01*
X120533475Y-82781633D01*
X120695990Y-82538412D01*
X120807932Y-82268159D01*
X120865000Y-81981261D01*
X120865000Y-81688741D01*
X120807932Y-81401843D01*
X120695990Y-81131590D01*
X120533475Y-80888369D01*
X120326632Y-80681526D01*
X120144466Y-80559806D01*
X120261355Y-80490179D01*
X120477588Y-80295270D01*
X120651641Y-80061921D01*
X120776825Y-79799100D01*
X120821476Y-79651891D01*
X120700155Y-79422001D01*
X119507000Y-79422001D01*
X119507000Y-79442001D01*
X119253000Y-79442001D01*
X119253000Y-79422001D01*
X118059845Y-79422001D01*
X117938524Y-79651891D01*
X117983175Y-79799100D01*
X118108359Y-80061921D01*
X118282412Y-80295270D01*
X118498645Y-80490179D01*
X118615534Y-80559806D01*
X118433368Y-80681526D01*
X118226525Y-80888369D01*
X118064010Y-81131590D01*
X117952068Y-81401843D01*
X117895000Y-81688741D01*
X117500000Y-81688741D01*
X117500000Y-76232279D01*
X117514722Y-76082131D01*
X117548953Y-75968754D01*
X117604555Y-75864181D01*
X117679407Y-75772404D01*
X117770664Y-75696909D01*
X117874844Y-75640581D01*
X117966479Y-75612214D01*
X117940498Y-75660821D01*
X117904188Y-75780519D01*
X117891928Y-75905001D01*
X117891928Y-77605001D01*
X117904188Y-77729483D01*
X117940498Y-77849181D01*
X117999463Y-77959495D01*
X118078815Y-78056186D01*
X118175506Y-78135538D01*
X118285820Y-78194503D01*
X118366466Y-78218967D01*
X118282412Y-78294732D01*
X118108359Y-78528081D01*
X117983175Y-78790902D01*
X117938524Y-78938111D01*
X118059845Y-79168001D01*
X119253000Y-79168001D01*
X119253000Y-79148001D01*
X119507000Y-79148001D01*
X119507000Y-79168001D01*
X120700155Y-79168001D01*
X120821476Y-78938111D01*
X120776825Y-78790902D01*
X120651641Y-78528081D01*
X120477588Y-78294732D01*
X120393534Y-78218967D01*
X120474180Y-78194503D01*
X120584494Y-78135538D01*
X120681185Y-78056186D01*
X120760537Y-77959495D01*
X120819502Y-77849181D01*
X120855812Y-77729483D01*
X120868072Y-77605001D01*
X120868072Y-75905001D01*
X120855812Y-75780519D01*
X120819502Y-75660821D01*
X120781647Y-75590000D01*
X148458353Y-75590000D01*
X148420498Y-75660821D01*
%TA.AperFunction,Conductor*%
D13*
G36*
X148420498Y-75660821D02*
G01*
X148384188Y-75780519D01*
X148371928Y-75905001D01*
X148371928Y-77605001D01*
X148384188Y-77729483D01*
X148420498Y-77849181D01*
X148479463Y-77959495D01*
X148558815Y-78056186D01*
X148655506Y-78135538D01*
X148765820Y-78194503D01*
X148838380Y-78216514D01*
X148706525Y-78348369D01*
X148544010Y-78591590D01*
X148432068Y-78861843D01*
X148375000Y-79148741D01*
X148375000Y-79441261D01*
X148432068Y-79728159D01*
X148544010Y-79998412D01*
X148706525Y-80241633D01*
X148913368Y-80448476D01*
X149087760Y-80565001D01*
X148913368Y-80681526D01*
X148706525Y-80888369D01*
X148544010Y-81131590D01*
X148432068Y-81401843D01*
X148375000Y-81688741D01*
X148375000Y-81981261D01*
X148432068Y-82268159D01*
X148544010Y-82538412D01*
X148706525Y-82781633D01*
X148913368Y-82988476D01*
X149087760Y-83105001D01*
X148913368Y-83221526D01*
X148706525Y-83428369D01*
X148544010Y-83671590D01*
X148432068Y-83941843D01*
X148375000Y-84228741D01*
X148375000Y-84521261D01*
X148432068Y-84808159D01*
X148544010Y-85078412D01*
X148706525Y-85321633D01*
X148913368Y-85528476D01*
X149087760Y-85645001D01*
X148913368Y-85761526D01*
X148706525Y-85968369D01*
X148544010Y-86211590D01*
X148432068Y-86481843D01*
X148375000Y-86768741D01*
X148375000Y-87061261D01*
X148432068Y-87348159D01*
X148544010Y-87618412D01*
X148706525Y-87861633D01*
X148913368Y-88068476D01*
X149087760Y-88185001D01*
X148913368Y-88301526D01*
X148706525Y-88508369D01*
X148544010Y-88751590D01*
X148432068Y-89021843D01*
X148375000Y-89308741D01*
X148375000Y-89601261D01*
X148432068Y-89888159D01*
X148544010Y-90158412D01*
X148706525Y-90401633D01*
X148913368Y-90608476D01*
X149087760Y-90725001D01*
X148913368Y-90841526D01*
X148706525Y-91048369D01*
X148544010Y-91291590D01*
X148432068Y-91561843D01*
X148375000Y-91848741D01*
X148375000Y-92141261D01*
X148432068Y-92428159D01*
X148544010Y-92698412D01*
X148706525Y-92941633D01*
X148913368Y-93148476D01*
X149087760Y-93265001D01*
X148913368Y-93381526D01*
X148706525Y-93588369D01*
X148544010Y-93831590D01*
X148432068Y-94101843D01*
X148375000Y-94388741D01*
X148375000Y-94681261D01*
X148432068Y-94968159D01*
X148544010Y-95238412D01*
X148706525Y-95481633D01*
X148913368Y-95688476D01*
X149087760Y-95805001D01*
X148913368Y-95921526D01*
X148706525Y-96128369D01*
X148544010Y-96371590D01*
X148432068Y-96641843D01*
X148375000Y-96928741D01*
X148375000Y-97221261D01*
X148432068Y-97508159D01*
X148544010Y-97778412D01*
X148706525Y-98021633D01*
X148913368Y-98228476D01*
X149087760Y-98345001D01*
X148913368Y-98461526D01*
X148706525Y-98668369D01*
X148544010Y-98911590D01*
X148432068Y-99181843D01*
X148375000Y-99468741D01*
X148375000Y-99761261D01*
X148432068Y-100048159D01*
X148544010Y-100318412D01*
X148706525Y-100561633D01*
X148913368Y-100768476D01*
X149087760Y-100885001D01*
X148913368Y-101001526D01*
X148706525Y-101208369D01*
X148544010Y-101451590D01*
X148432068Y-101721843D01*
X148375000Y-102008741D01*
X148375000Y-102301261D01*
X148432068Y-102588159D01*
X148544010Y-102858412D01*
X148706525Y-103101633D01*
X148913368Y-103308476D01*
X149087760Y-103425001D01*
X148913368Y-103541526D01*
X148706525Y-103748369D01*
X148544010Y-103991590D01*
X148432068Y-104261843D01*
X148375000Y-104548741D01*
X148375000Y-104841261D01*
X148432068Y-105128159D01*
X148544010Y-105398412D01*
X148706525Y-105641633D01*
X148913368Y-105848476D01*
X149156589Y-106010991D01*
X149178339Y-106020000D01*
X120061661Y-106020000D01*
X120083411Y-106010991D01*
X120326632Y-105848476D01*
X120533475Y-105641633D01*
X120695990Y-105398412D01*
X120807932Y-105128159D01*
X120865000Y-104841261D01*
X120865000Y-104548741D01*
X120807932Y-104261843D01*
X120695990Y-103991590D01*
X120533475Y-103748369D01*
X120326632Y-103541526D01*
X120152240Y-103425001D01*
X120326632Y-103308476D01*
X120533475Y-103101633D01*
X120695990Y-102858412D01*
X120807932Y-102588159D01*
X120865000Y-102301261D01*
X120865000Y-102008741D01*
X120807932Y-101721843D01*
X120695990Y-101451590D01*
X120533475Y-101208369D01*
X120326632Y-101001526D01*
X120152240Y-100885001D01*
X120326632Y-100768476D01*
X120533475Y-100561633D01*
X120695990Y-100318412D01*
X120807932Y-100048159D01*
X120865000Y-99761261D01*
X120865000Y-99468741D01*
X120807932Y-99181843D01*
X120695990Y-98911590D01*
X120533475Y-98668369D01*
X120326632Y-98461526D01*
X120152240Y-98345001D01*
X120326632Y-98228476D01*
X120533475Y-98021633D01*
X120695990Y-97778412D01*
X120807932Y-97508159D01*
X120865000Y-97221261D01*
X120865000Y-96928741D01*
X120807932Y-96641843D01*
X120695990Y-96371590D01*
X120533475Y-96128369D01*
X120326632Y-95921526D01*
X120144466Y-95799806D01*
X120261355Y-95730179D01*
X120477588Y-95535270D01*
X120651641Y-95301921D01*
X120776825Y-95039100D01*
X120821476Y-94891891D01*
X120700155Y-94662001D01*
X119507000Y-94662001D01*
X119507000Y-94682001D01*
X119253000Y-94682001D01*
X119253000Y-94662001D01*
X118059845Y-94662001D01*
X117938524Y-94891891D01*
X117983175Y-95039100D01*
X118108359Y-95301921D01*
X118282412Y-95535270D01*
X118498645Y-95730179D01*
X118615534Y-95799806D01*
X118433368Y-95921526D01*
X118226525Y-96128369D01*
X118064010Y-96371590D01*
X117952068Y-96641843D01*
X117895000Y-96928741D01*
X117895000Y-97221261D01*
X117952068Y-97508159D01*
X118064010Y-97778412D01*
X118226525Y-98021633D01*
X118433368Y-98228476D01*
X118607760Y-98345001D01*
X118433368Y-98461526D01*
X118226525Y-98668369D01*
X118064010Y-98911590D01*
X117952068Y-99181843D01*
X117895000Y-99468741D01*
X117895000Y-99761261D01*
X117952068Y-100048159D01*
X118064010Y-100318412D01*
X118226525Y-100561633D01*
X118433368Y-100768476D01*
X118607760Y-100885001D01*
X118433368Y-101001526D01*
X118226525Y-101208369D01*
X118064010Y-101451590D01*
X117952068Y-101721843D01*
X117895000Y-102008741D01*
X117895000Y-102301261D01*
X117952068Y-102588159D01*
X118064010Y-102858412D01*
X118226525Y-103101633D01*
X118433368Y-103308476D01*
X118607760Y-103425001D01*
X118433368Y-103541526D01*
X118226525Y-103748369D01*
X118064010Y-103991590D01*
X117952068Y-104261843D01*
X117895000Y-104548741D01*
X117895000Y-104841261D01*
X117952068Y-105128159D01*
X118064010Y-105398412D01*
X118226525Y-105641633D01*
X118433368Y-105848476D01*
X118676589Y-106010991D01*
X118698339Y-106020000D01*
X118142279Y-106020000D01*
X117992131Y-106005278D01*
X117878754Y-105971047D01*
X117774183Y-105915446D01*
X117682405Y-105840594D01*
X117606909Y-105749335D01*
X117550581Y-105645160D01*
X117515560Y-105532024D01*
X117500000Y-105383979D01*
X117500000Y-81688741D01*
X117895000Y-81688741D01*
X117895000Y-81981261D01*
X117952068Y-82268159D01*
X118064010Y-82538412D01*
X118226525Y-82781633D01*
X118433368Y-82988476D01*
X118607760Y-83105001D01*
X118433368Y-83221526D01*
X118226525Y-83428369D01*
X118064010Y-83671590D01*
X117952068Y-83941843D01*
X117895000Y-84228741D01*
X117895000Y-84521261D01*
X117952068Y-84808159D01*
X118064010Y-85078412D01*
X118226525Y-85321633D01*
X118433368Y-85528476D01*
X118607760Y-85645001D01*
X118433368Y-85761526D01*
X118226525Y-85968369D01*
X118064010Y-86211590D01*
X117952068Y-86481843D01*
X117895000Y-86768741D01*
X117895000Y-87061261D01*
X117952068Y-87348159D01*
X118064010Y-87618412D01*
X118226525Y-87861633D01*
X118433368Y-88068476D01*
X118607760Y-88185001D01*
X118433368Y-88301526D01*
X118226525Y-88508369D01*
X118064010Y-88751590D01*
X117952068Y-89021843D01*
X117895000Y-89308741D01*
X117895000Y-89601261D01*
X117952068Y-89888159D01*
X118064010Y-90158412D01*
X118226525Y-90401633D01*
X118433368Y-90608476D01*
X118607760Y-90725001D01*
X118433368Y-90841526D01*
X118226525Y-91048369D01*
X118064010Y-91291590D01*
X117952068Y-91561843D01*
X117895000Y-91848741D01*
X117895000Y-92141261D01*
X117952068Y-92428159D01*
X118064010Y-92698412D01*
X118226525Y-92941633D01*
X118433368Y-93148476D01*
X118615534Y-93270196D01*
X118498645Y-93339823D01*
X118282412Y-93534732D01*
X118108359Y-93768081D01*
X117983175Y-94030902D01*
X117938524Y-94178111D01*
X118059845Y-94408001D01*
X119253000Y-94408001D01*
X119253000Y-94388001D01*
X119507000Y-94388001D01*
X119507000Y-94408001D01*
X120700155Y-94408001D01*
X120821476Y-94178111D01*
X120776825Y-94030902D01*
X120651641Y-93768081D01*
X120477588Y-93534732D01*
X120261355Y-93339823D01*
X120144466Y-93270196D01*
X120326632Y-93148476D01*
X120533475Y-92941633D01*
X120695990Y-92698412D01*
X120807932Y-92428159D01*
X120865000Y-92141261D01*
X120865000Y-91848741D01*
X120807932Y-91561843D01*
X120695990Y-91291590D01*
X120533475Y-91048369D01*
X120326632Y-90841526D01*
X120152240Y-90725001D01*
X120326632Y-90608476D01*
X120533475Y-90401633D01*
X120695990Y-90158412D01*
X120807932Y-89888159D01*
X120865000Y-89601261D01*
X120865000Y-89308741D01*
X120807932Y-89021843D01*
X120695990Y-88751590D01*
X120533475Y-88508369D01*
X120326632Y-88301526D01*
X120152240Y-88185001D01*
X120326632Y-88068476D01*
X120533475Y-87861633D01*
X120695990Y-87618412D01*
X120807932Y-87348159D01*
X120865000Y-87061261D01*
X120865000Y-86768741D01*
X120807932Y-86481843D01*
X120695990Y-86211590D01*
X120533475Y-85968369D01*
X120326632Y-85761526D01*
X120152240Y-85645001D01*
X120326632Y-85528476D01*
X120533475Y-85321633D01*
X120695990Y-85078412D01*
X120807932Y-84808159D01*
X120865000Y-84521261D01*
X120865000Y-84228741D01*
X120807932Y-83941843D01*
X120695990Y-83671590D01*
X120533475Y-83428369D01*
X120326632Y-83221526D01*
X120152240Y-83105001D01*
X120326632Y-82988476D01*
X120533475Y-82781633D01*
X120695990Y-82538412D01*
X120807932Y-82268159D01*
X120865000Y-81981261D01*
X120865000Y-81688741D01*
X120807932Y-81401843D01*
X120695990Y-81131590D01*
X120533475Y-80888369D01*
X120326632Y-80681526D01*
X120144466Y-80559806D01*
X120261355Y-80490179D01*
X120477588Y-80295270D01*
X120651641Y-80061921D01*
X120776825Y-79799100D01*
X120821476Y-79651891D01*
X120700155Y-79422001D01*
X119507000Y-79422001D01*
X119507000Y-79442001D01*
X119253000Y-79442001D01*
X119253000Y-79422001D01*
X118059845Y-79422001D01*
X117938524Y-79651891D01*
X117983175Y-79799100D01*
X118108359Y-80061921D01*
X118282412Y-80295270D01*
X118498645Y-80490179D01*
X118615534Y-80559806D01*
X118433368Y-80681526D01*
X118226525Y-80888369D01*
X118064010Y-81131590D01*
X117952068Y-81401843D01*
X117895000Y-81688741D01*
X117500000Y-81688741D01*
X117500000Y-76232279D01*
X117514722Y-76082131D01*
X117548953Y-75968754D01*
X117604555Y-75864181D01*
X117679407Y-75772404D01*
X117770664Y-75696909D01*
X117874844Y-75640581D01*
X117966479Y-75612214D01*
X117940498Y-75660821D01*
X117904188Y-75780519D01*
X117891928Y-75905001D01*
X117891928Y-77605001D01*
X117904188Y-77729483D01*
X117940498Y-77849181D01*
X117999463Y-77959495D01*
X118078815Y-78056186D01*
X118175506Y-78135538D01*
X118285820Y-78194503D01*
X118366466Y-78218967D01*
X118282412Y-78294732D01*
X118108359Y-78528081D01*
X117983175Y-78790902D01*
X117938524Y-78938111D01*
X118059845Y-79168001D01*
X119253000Y-79168001D01*
X119253000Y-79148001D01*
X119507000Y-79148001D01*
X119507000Y-79168001D01*
X120700155Y-79168001D01*
X120821476Y-78938111D01*
X120776825Y-78790902D01*
X120651641Y-78528081D01*
X120477588Y-78294732D01*
X120393534Y-78218967D01*
X120474180Y-78194503D01*
X120584494Y-78135538D01*
X120681185Y-78056186D01*
X120760537Y-77959495D01*
X120819502Y-77849181D01*
X120855812Y-77729483D01*
X120868072Y-77605001D01*
X120868072Y-75905001D01*
X120855812Y-75780519D01*
X120819502Y-75660821D01*
X120781647Y-75590000D01*
X148458353Y-75590000D01*
X148420498Y-75660821D01*
G37*
%TD.AperFunction*%
%TD*%
M02*
