%TF.GenerationSoftware,KiCad,Pcbnew,(5.1.12)-1*%
%TF.CreationDate,2022-06-22T11:17:58+02:00*%
%TF.ProjectId,ai-thinker-vc01,61692d74-6869-46e6-9b65-722d76633031,rev?*%
%TF.SameCoordinates,Original*%
%TF.FileFunction,Copper,L1,Top*%
%TF.FilePolarity,Positive*%
%FSLAX46Y46*%
G04 Gerber Fmt 4.6, Leading zero omitted, Abs format (unit mm)*
G04 Created by KiCad (PCBNEW (5.1.12)-1) date 2022-06-22 11:17:58*
%MOMM*%
%LPD*%
G01*
G04 APERTURE LIST*
%TA.AperFunction,ComponentPad*%
%ADD10O,1.700000X1.700000*%
%TD*%
%TA.AperFunction,ComponentPad*%
%ADD11R,1.700000X1.700000*%
%TD*%
%TA.AperFunction,SMDPad,CuDef*%
%ADD12R,3.000000X1.200000*%
%TD*%
%TA.AperFunction,Conductor*%
%ADD13C,0.250000*%
%TD*%
%TA.AperFunction,Conductor*%
%ADD14C,0.254000*%
%TD*%
%TA.AperFunction,Conductor*%
%ADD15C,0.100000*%
%TD*%
G04 APERTURE END LIST*
D10*
%TO.P,J2,12*%
%TO.N,Net-(J2-Pad12)*%
X149860000Y-104695001D03*
%TO.P,J2,11*%
%TO.N,Net-(J2-Pad11)*%
X149860000Y-102155001D03*
%TO.P,J2,10*%
%TO.N,Net-(J2-Pad10)*%
X149860000Y-99615001D03*
%TO.P,J2,9*%
%TO.N,Net-(J2-Pad9)*%
X149860000Y-97075001D03*
%TO.P,J2,8*%
%TO.N,Net-(J2-Pad8)*%
X149860000Y-94535001D03*
%TO.P,J2,7*%
%TO.N,Net-(J2-Pad7)*%
X149860000Y-91995001D03*
%TO.P,J2,6*%
%TO.N,Net-(J2-Pad6)*%
X149860000Y-89455001D03*
%TO.P,J2,5*%
%TO.N,Net-(J2-Pad5)*%
X149860000Y-86915001D03*
%TO.P,J2,4*%
%TO.N,Net-(J2-Pad4)*%
X149860000Y-84375001D03*
%TO.P,J2,3*%
%TO.N,Net-(J2-Pad3)*%
X149860000Y-81835001D03*
%TO.P,J2,2*%
%TO.N,Net-(J2-Pad2)*%
X149860000Y-79295001D03*
D11*
%TO.P,J2,1*%
%TO.N,Net-(J2-Pad1)*%
X149860000Y-76755001D03*
%TD*%
%TO.P,J1,1*%
%TO.N,Net-(J1-Pad1)*%
X119380000Y-76755001D03*
D10*
%TO.P,J1,2*%
%TO.N,GND*%
X119380000Y-79295001D03*
%TO.P,J1,3*%
%TO.N,Net-(J1-Pad3)*%
X119380000Y-81835001D03*
%TO.P,J1,4*%
%TO.N,Net-(J1-Pad4)*%
X119380000Y-84375001D03*
%TO.P,J1,5*%
%TO.N,Net-(J1-Pad5)*%
X119380000Y-86915001D03*
%TO.P,J1,6*%
%TO.N,Net-(J1-Pad6)*%
X119380000Y-89455001D03*
%TO.P,J1,7*%
%TO.N,Net-(J1-Pad7)*%
X119380000Y-91995001D03*
%TO.P,J1,8*%
%TO.N,GND*%
X119380000Y-94535001D03*
%TO.P,J1,9*%
%TO.N,Net-(J1-Pad9)*%
X119380000Y-97075001D03*
%TO.P,J1,10*%
%TO.N,Net-(J1-Pad10)*%
X119380000Y-99615001D03*
%TO.P,J1,11*%
%TO.N,Net-(J1-Pad11)*%
X119380000Y-102155001D03*
%TO.P,J1,12*%
%TO.N,Net-(J1-Pad12)*%
X119380000Y-104695001D03*
%TD*%
D12*
%TO.P,U1,24*%
%TO.N,Net-(J2-Pad1)*%
X146120000Y-79170000D03*
%TO.P,U1,23*%
%TO.N,Net-(J2-Pad2)*%
X146120000Y-81170000D03*
%TO.P,U1,22*%
%TO.N,Net-(J2-Pad3)*%
X146120000Y-83170000D03*
%TO.P,U1,21*%
%TO.N,Net-(J2-Pad4)*%
X146120000Y-85170000D03*
%TO.P,U1,20*%
%TO.N,Net-(J2-Pad5)*%
X146120000Y-87170000D03*
%TO.P,U1,19*%
%TO.N,Net-(J2-Pad6)*%
X146120000Y-89170000D03*
%TO.P,U1,18*%
%TO.N,Net-(J2-Pad7)*%
X146120000Y-91170000D03*
%TO.P,U1,17*%
%TO.N,Net-(U1-Pad17)*%
X146120000Y-93170000D03*
%TO.P,U1,16*%
%TO.N,Net-(J2-Pad9)*%
X146120000Y-95170000D03*
%TO.P,U1,15*%
%TO.N,Net-(J2-Pad10)*%
X146120000Y-97170000D03*
%TO.P,U1,14*%
%TO.N,Net-(U1-Pad14)*%
X146120000Y-99170000D03*
%TO.P,U1,13*%
%TO.N,Net-(J2-Pad12)*%
X146120000Y-101170000D03*
%TO.P,U1,12*%
%TO.N,Net-(J1-Pad12)*%
X123120000Y-101170000D03*
%TO.P,U1,11*%
%TO.N,Net-(J1-Pad11)*%
X123120000Y-99170000D03*
%TO.P,U1,10*%
%TO.N,Net-(J1-Pad10)*%
X123120000Y-97170000D03*
%TO.P,U1,9*%
%TO.N,Net-(J1-Pad9)*%
X123120000Y-95170000D03*
%TO.P,U1,8*%
%TO.N,GND*%
X123120000Y-93170000D03*
%TO.P,U1,7*%
%TO.N,Net-(J1-Pad7)*%
X123120000Y-91170000D03*
%TO.P,U1,6*%
%TO.N,Net-(J1-Pad6)*%
X123120000Y-89170000D03*
%TO.P,U1,5*%
%TO.N,Net-(J1-Pad5)*%
X123120000Y-87170000D03*
%TO.P,U1,4*%
%TO.N,Net-(J1-Pad4)*%
X123120000Y-85170000D03*
%TO.P,U1,3*%
%TO.N,Net-(J1-Pad3)*%
X123120000Y-83170000D03*
%TO.P,U1,2*%
%TO.N,GND*%
X123120000Y-81170000D03*
%TO.P,U1,1*%
%TO.N,Net-(J1-Pad1)*%
X123120000Y-79170000D03*
%TD*%
D13*
%TO.N,Net-(J1-Pad1)*%
X123120000Y-79170000D02*
X123120000Y-77540000D01*
X122335001Y-76755001D02*
X119380000Y-76755001D01*
X123120000Y-77540000D02*
X122335001Y-76755001D01*
%TO.N,Net-(J1-Pad3)*%
X120714999Y-83170000D02*
X119380000Y-81835001D01*
X123120000Y-83170000D02*
X120714999Y-83170000D01*
%TO.N,Net-(J1-Pad4)*%
X120174999Y-85170000D02*
X119380000Y-84375001D01*
X123120000Y-85170000D02*
X120174999Y-85170000D01*
%TO.N,Net-(J1-Pad5)*%
X119634999Y-87170000D02*
X119380000Y-86915001D01*
X123120000Y-87170000D02*
X119634999Y-87170000D01*
%TO.N,Net-(J1-Pad6)*%
X119665001Y-89170000D02*
X119380000Y-89455001D01*
X123120000Y-89170000D02*
X119665001Y-89170000D01*
%TO.N,Net-(J1-Pad7)*%
X120205001Y-91170000D02*
X119380000Y-91995001D01*
X123120000Y-91170000D02*
X120205001Y-91170000D01*
%TO.N,Net-(J1-Pad9)*%
X121285001Y-95170000D02*
X119380000Y-97075001D01*
X123120000Y-95170000D02*
X121285001Y-95170000D01*
%TO.N,Net-(J1-Pad10)*%
X121825001Y-97170000D02*
X119380000Y-99615001D01*
X123120000Y-97170000D02*
X121825001Y-97170000D01*
%TO.N,Net-(J1-Pad11)*%
X119380000Y-102010000D02*
X119380000Y-102155001D01*
X122220000Y-99170000D02*
X119380000Y-102010000D01*
X123120000Y-99170000D02*
X122220000Y-99170000D01*
%TO.N,Net-(J1-Pad12)*%
X123120000Y-101170000D02*
X123120000Y-101670000D01*
X120094999Y-104695001D02*
X119380000Y-104695001D01*
X123120000Y-101670000D02*
X120094999Y-104695001D01*
%TO.N,Net-(J2-Pad12)*%
X146334999Y-101170000D02*
X149860000Y-104695001D01*
X146120000Y-101170000D02*
X146334999Y-101170000D01*
%TO.N,Net-(J2-Pad10)*%
X149860000Y-99160000D02*
X149860000Y-99615001D01*
X147870000Y-97170000D02*
X149860000Y-99160000D01*
X146120000Y-97170000D02*
X147870000Y-97170000D01*
%TO.N,Net-(J2-Pad9)*%
X147954999Y-95170000D02*
X149860000Y-97075001D01*
X146120000Y-95170000D02*
X147954999Y-95170000D01*
%TO.N,Net-(J2-Pad7)*%
X149034999Y-91170000D02*
X149860000Y-91995001D01*
X146120000Y-91170000D02*
X149034999Y-91170000D01*
%TO.N,Net-(J2-Pad6)*%
X149574999Y-89170000D02*
X149860000Y-89455001D01*
X146120000Y-89170000D02*
X149574999Y-89170000D01*
%TO.N,Net-(J2-Pad5)*%
X149605001Y-87170000D02*
X149860000Y-86915001D01*
X146120000Y-87170000D02*
X149605001Y-87170000D01*
%TO.N,Net-(J2-Pad4)*%
X149065001Y-85170000D02*
X149860000Y-84375001D01*
X146120000Y-85170000D02*
X149065001Y-85170000D01*
%TO.N,Net-(J2-Pad3)*%
X148525001Y-83170000D02*
X149860000Y-81835001D01*
X146120000Y-83170000D02*
X148525001Y-83170000D01*
%TO.N,Net-(J2-Pad2)*%
X147985001Y-81170000D02*
X149860000Y-79295001D01*
X146120000Y-81170000D02*
X147985001Y-81170000D01*
%TO.N,Net-(J2-Pad1)*%
X146120000Y-79170000D02*
X146120000Y-78670000D01*
X148034999Y-76755001D02*
X149860000Y-76755001D01*
X146120000Y-78670000D02*
X148034999Y-76755001D01*
%TO.N,GND*%
X121254999Y-81170000D02*
X119380000Y-79295001D01*
X123120000Y-81170000D02*
X121254999Y-81170000D01*
X120745001Y-93170000D02*
X119380000Y-94535001D01*
X123120000Y-93170000D02*
X120745001Y-93170000D01*
X123120000Y-81170000D02*
X126890000Y-81170000D01*
X126890000Y-81170000D02*
X128270000Y-82550000D01*
X128270000Y-82550000D02*
X128270000Y-91440000D01*
X126540000Y-93170000D02*
X123120000Y-93170000D01*
X128270000Y-91440000D02*
X126540000Y-93170000D01*
%TD*%
D14*
%TO.N,GND*%
X148420498Y-75660821D02*
X148384188Y-75780519D01*
X148371928Y-75905001D01*
X148371928Y-75995001D01*
X148072332Y-75995001D01*
X148034999Y-75991324D01*
X147997666Y-75995001D01*
X147886013Y-76005998D01*
X147742752Y-76049455D01*
X147610723Y-76120027D01*
X147494998Y-76215000D01*
X147471200Y-76243998D01*
X145783271Y-77931928D01*
X144620000Y-77931928D01*
X144495518Y-77944188D01*
X144375820Y-77980498D01*
X144265506Y-78039463D01*
X144168815Y-78118815D01*
X144089463Y-78215506D01*
X144030498Y-78325820D01*
X143994188Y-78445518D01*
X143981928Y-78570000D01*
X143981928Y-79770000D01*
X143994188Y-79894482D01*
X144030498Y-80014180D01*
X144089463Y-80124494D01*
X144126809Y-80170000D01*
X144089463Y-80215506D01*
X144030498Y-80325820D01*
X143994188Y-80445518D01*
X143981928Y-80570000D01*
X143981928Y-81770000D01*
X143994188Y-81894482D01*
X144030498Y-82014180D01*
X144089463Y-82124494D01*
X144126809Y-82170000D01*
X144089463Y-82215506D01*
X144030498Y-82325820D01*
X143994188Y-82445518D01*
X143981928Y-82570000D01*
X143981928Y-83770000D01*
X143994188Y-83894482D01*
X144030498Y-84014180D01*
X144089463Y-84124494D01*
X144126809Y-84170000D01*
X144089463Y-84215506D01*
X144030498Y-84325820D01*
X143994188Y-84445518D01*
X143981928Y-84570000D01*
X143981928Y-85770000D01*
X143994188Y-85894482D01*
X144030498Y-86014180D01*
X144089463Y-86124494D01*
X144126809Y-86170000D01*
X144089463Y-86215506D01*
X144030498Y-86325820D01*
X143994188Y-86445518D01*
X143981928Y-86570000D01*
X143981928Y-87770000D01*
X143994188Y-87894482D01*
X144030498Y-88014180D01*
X144089463Y-88124494D01*
X144126809Y-88170000D01*
X144089463Y-88215506D01*
X144030498Y-88325820D01*
X143994188Y-88445518D01*
X143981928Y-88570000D01*
X143981928Y-89770000D01*
X143994188Y-89894482D01*
X144030498Y-90014180D01*
X144089463Y-90124494D01*
X144126809Y-90170000D01*
X144089463Y-90215506D01*
X144030498Y-90325820D01*
X143994188Y-90445518D01*
X143981928Y-90570000D01*
X143981928Y-91770000D01*
X143994188Y-91894482D01*
X144030498Y-92014180D01*
X144089463Y-92124494D01*
X144126809Y-92170000D01*
X144089463Y-92215506D01*
X144030498Y-92325820D01*
X143994188Y-92445518D01*
X143981928Y-92570000D01*
X143981928Y-93770000D01*
X143994188Y-93894482D01*
X144030498Y-94014180D01*
X144089463Y-94124494D01*
X144126809Y-94170000D01*
X144089463Y-94215506D01*
X144030498Y-94325820D01*
X143994188Y-94445518D01*
X143981928Y-94570000D01*
X143981928Y-95770000D01*
X143994188Y-95894482D01*
X144030498Y-96014180D01*
X144089463Y-96124494D01*
X144126809Y-96170000D01*
X144089463Y-96215506D01*
X144030498Y-96325820D01*
X143994188Y-96445518D01*
X143981928Y-96570000D01*
X143981928Y-97770000D01*
X143994188Y-97894482D01*
X144030498Y-98014180D01*
X144089463Y-98124494D01*
X144126809Y-98170000D01*
X144089463Y-98215506D01*
X144030498Y-98325820D01*
X143994188Y-98445518D01*
X143981928Y-98570000D01*
X143981928Y-99770000D01*
X143994188Y-99894482D01*
X144030498Y-100014180D01*
X144089463Y-100124494D01*
X144126809Y-100170000D01*
X144089463Y-100215506D01*
X144030498Y-100325820D01*
X143994188Y-100445518D01*
X143981928Y-100570000D01*
X143981928Y-101770000D01*
X143994188Y-101894482D01*
X144030498Y-102014180D01*
X144089463Y-102124494D01*
X144168815Y-102221185D01*
X144265506Y-102300537D01*
X144375820Y-102359502D01*
X144495518Y-102395812D01*
X144620000Y-102408072D01*
X146498270Y-102408072D01*
X148418790Y-104328593D01*
X148375000Y-104548741D01*
X148375000Y-104841261D01*
X148432068Y-105128159D01*
X148544010Y-105398412D01*
X148706525Y-105641633D01*
X148913368Y-105848476D01*
X149156589Y-106010991D01*
X149178339Y-106020000D01*
X120061661Y-106020000D01*
X120083411Y-106010991D01*
X120326632Y-105848476D01*
X120533475Y-105641633D01*
X120695990Y-105398412D01*
X120807932Y-105128159D01*
X120825634Y-105039167D01*
X123456731Y-102408072D01*
X124620000Y-102408072D01*
X124744482Y-102395812D01*
X124864180Y-102359502D01*
X124974494Y-102300537D01*
X125071185Y-102221185D01*
X125150537Y-102124494D01*
X125209502Y-102014180D01*
X125245812Y-101894482D01*
X125258072Y-101770000D01*
X125258072Y-100570000D01*
X125245812Y-100445518D01*
X125209502Y-100325820D01*
X125150537Y-100215506D01*
X125113191Y-100170000D01*
X125150537Y-100124494D01*
X125209502Y-100014180D01*
X125245812Y-99894482D01*
X125258072Y-99770000D01*
X125258072Y-98570000D01*
X125245812Y-98445518D01*
X125209502Y-98325820D01*
X125150537Y-98215506D01*
X125113191Y-98170000D01*
X125150537Y-98124494D01*
X125209502Y-98014180D01*
X125245812Y-97894482D01*
X125258072Y-97770000D01*
X125258072Y-96570000D01*
X125245812Y-96445518D01*
X125209502Y-96325820D01*
X125150537Y-96215506D01*
X125113191Y-96170000D01*
X125150537Y-96124494D01*
X125209502Y-96014180D01*
X125245812Y-95894482D01*
X125258072Y-95770000D01*
X125258072Y-94570000D01*
X125245812Y-94445518D01*
X125209502Y-94325820D01*
X125150537Y-94215506D01*
X125113191Y-94170000D01*
X125150537Y-94124494D01*
X125209502Y-94014180D01*
X125245812Y-93894482D01*
X125258072Y-93770000D01*
X125255000Y-93455750D01*
X125096250Y-93297000D01*
X123247000Y-93297000D01*
X123247000Y-93317000D01*
X122993000Y-93317000D01*
X122993000Y-93297000D01*
X121143750Y-93297000D01*
X120985000Y-93455750D01*
X120981928Y-93770000D01*
X120994188Y-93894482D01*
X121030498Y-94014180D01*
X121089463Y-94124494D01*
X121126809Y-94170000D01*
X121089463Y-94215506D01*
X121030498Y-94325820D01*
X120994188Y-94445518D01*
X120992299Y-94464697D01*
X120865000Y-94532741D01*
X120865000Y-94407999D01*
X120700156Y-94407999D01*
X120821476Y-94178111D01*
X120776825Y-94030902D01*
X120651641Y-93768081D01*
X120477588Y-93534732D01*
X120261355Y-93339823D01*
X120144466Y-93270196D01*
X120326632Y-93148476D01*
X120533475Y-92941633D01*
X120695990Y-92698412D01*
X120807932Y-92428159D01*
X120865000Y-92141261D01*
X120865000Y-91930000D01*
X121004962Y-91930000D01*
X121030498Y-92014180D01*
X121089463Y-92124494D01*
X121126809Y-92170000D01*
X121089463Y-92215506D01*
X121030498Y-92325820D01*
X120994188Y-92445518D01*
X120981928Y-92570000D01*
X120985000Y-92884250D01*
X121143750Y-93043000D01*
X122993000Y-93043000D01*
X122993000Y-93023000D01*
X123247000Y-93023000D01*
X123247000Y-93043000D01*
X125096250Y-93043000D01*
X125255000Y-92884250D01*
X125258072Y-92570000D01*
X125245812Y-92445518D01*
X125209502Y-92325820D01*
X125150537Y-92215506D01*
X125113191Y-92170000D01*
X125150537Y-92124494D01*
X125209502Y-92014180D01*
X125245812Y-91894482D01*
X125258072Y-91770000D01*
X125258072Y-90570000D01*
X125245812Y-90445518D01*
X125209502Y-90325820D01*
X125150537Y-90215506D01*
X125113191Y-90170000D01*
X125150537Y-90124494D01*
X125209502Y-90014180D01*
X125245812Y-89894482D01*
X125258072Y-89770000D01*
X125258072Y-88570000D01*
X125245812Y-88445518D01*
X125209502Y-88325820D01*
X125150537Y-88215506D01*
X125113191Y-88170000D01*
X125150537Y-88124494D01*
X125209502Y-88014180D01*
X125245812Y-87894482D01*
X125258072Y-87770000D01*
X125258072Y-86570000D01*
X125245812Y-86445518D01*
X125209502Y-86325820D01*
X125150537Y-86215506D01*
X125113191Y-86170000D01*
X125150537Y-86124494D01*
X125209502Y-86014180D01*
X125245812Y-85894482D01*
X125258072Y-85770000D01*
X125258072Y-84570000D01*
X125245812Y-84445518D01*
X125209502Y-84325820D01*
X125150537Y-84215506D01*
X125113191Y-84170000D01*
X125150537Y-84124494D01*
X125209502Y-84014180D01*
X125245812Y-83894482D01*
X125258072Y-83770000D01*
X125258072Y-82570000D01*
X125245812Y-82445518D01*
X125209502Y-82325820D01*
X125150537Y-82215506D01*
X125113191Y-82170000D01*
X125150537Y-82124494D01*
X125209502Y-82014180D01*
X125245812Y-81894482D01*
X125258072Y-81770000D01*
X125255000Y-81455750D01*
X125096250Y-81297000D01*
X123247000Y-81297000D01*
X123247000Y-81317000D01*
X122993000Y-81317000D01*
X122993000Y-81297000D01*
X121143750Y-81297000D01*
X120985000Y-81455750D01*
X120981928Y-81770000D01*
X120994188Y-81894482D01*
X121030498Y-82014180D01*
X121089463Y-82124494D01*
X121126809Y-82170000D01*
X121089463Y-82215506D01*
X121030498Y-82325820D01*
X121010743Y-82390942D01*
X120821210Y-82201409D01*
X120865000Y-81981261D01*
X120865000Y-81688741D01*
X120807932Y-81401843D01*
X120695990Y-81131590D01*
X120533475Y-80888369D01*
X120326632Y-80681526D01*
X120144466Y-80559806D01*
X120261355Y-80490179D01*
X120477588Y-80295270D01*
X120651641Y-80061921D01*
X120776825Y-79799100D01*
X120821476Y-79651891D01*
X120700155Y-79422001D01*
X119507000Y-79422001D01*
X119507000Y-79442001D01*
X119253000Y-79442001D01*
X119253000Y-79422001D01*
X118059845Y-79422001D01*
X117938524Y-79651891D01*
X117983175Y-79799100D01*
X118108359Y-80061921D01*
X118282412Y-80295270D01*
X118498645Y-80490179D01*
X118615534Y-80559806D01*
X118433368Y-80681526D01*
X118226525Y-80888369D01*
X118064010Y-81131590D01*
X117952068Y-81401843D01*
X117895000Y-81688741D01*
X117895000Y-81981261D01*
X117952068Y-82268159D01*
X118064010Y-82538412D01*
X118226525Y-82781633D01*
X118433368Y-82988476D01*
X118607760Y-83105001D01*
X118433368Y-83221526D01*
X118226525Y-83428369D01*
X118064010Y-83671590D01*
X117952068Y-83941843D01*
X117895000Y-84228741D01*
X117895000Y-84521261D01*
X117952068Y-84808159D01*
X118064010Y-85078412D01*
X118226525Y-85321633D01*
X118433368Y-85528476D01*
X118607760Y-85645001D01*
X118433368Y-85761526D01*
X118226525Y-85968369D01*
X118064010Y-86211590D01*
X117952068Y-86481843D01*
X117895000Y-86768741D01*
X117895000Y-87061261D01*
X117952068Y-87348159D01*
X118064010Y-87618412D01*
X118226525Y-87861633D01*
X118433368Y-88068476D01*
X118607760Y-88185001D01*
X118433368Y-88301526D01*
X118226525Y-88508369D01*
X118064010Y-88751590D01*
X117952068Y-89021843D01*
X117895000Y-89308741D01*
X117895000Y-89601261D01*
X117952068Y-89888159D01*
X118064010Y-90158412D01*
X118226525Y-90401633D01*
X118433368Y-90608476D01*
X118607760Y-90725001D01*
X118433368Y-90841526D01*
X118226525Y-91048369D01*
X118064010Y-91291590D01*
X117952068Y-91561843D01*
X117895000Y-91848741D01*
X117895000Y-92141261D01*
X117952068Y-92428159D01*
X118064010Y-92698412D01*
X118226525Y-92941633D01*
X118433368Y-93148476D01*
X118615534Y-93270196D01*
X118498645Y-93339823D01*
X118282412Y-93534732D01*
X118108359Y-93768081D01*
X117983175Y-94030902D01*
X117938524Y-94178111D01*
X118059845Y-94408001D01*
X119253000Y-94408001D01*
X119253000Y-94388001D01*
X119507000Y-94388001D01*
X119507000Y-94408001D01*
X119527000Y-94408001D01*
X119527000Y-94662001D01*
X119507000Y-94662001D01*
X119507000Y-94682001D01*
X119253000Y-94682001D01*
X119253000Y-94662001D01*
X118059845Y-94662001D01*
X117938524Y-94891891D01*
X117983175Y-95039100D01*
X118108359Y-95301921D01*
X118282412Y-95535270D01*
X118498645Y-95730179D01*
X118615534Y-95799806D01*
X118433368Y-95921526D01*
X118226525Y-96128369D01*
X118064010Y-96371590D01*
X117952068Y-96641843D01*
X117895000Y-96928741D01*
X117895000Y-97221261D01*
X117952068Y-97508159D01*
X118064010Y-97778412D01*
X118226525Y-98021633D01*
X118433368Y-98228476D01*
X118607760Y-98345001D01*
X118433368Y-98461526D01*
X118226525Y-98668369D01*
X118064010Y-98911590D01*
X117952068Y-99181843D01*
X117895000Y-99468741D01*
X117895000Y-99761261D01*
X117952068Y-100048159D01*
X118064010Y-100318412D01*
X118226525Y-100561633D01*
X118433368Y-100768476D01*
X118607760Y-100885001D01*
X118433368Y-101001526D01*
X118226525Y-101208369D01*
X118064010Y-101451590D01*
X117952068Y-101721843D01*
X117895000Y-102008741D01*
X117895000Y-102301261D01*
X117952068Y-102588159D01*
X118064010Y-102858412D01*
X118226525Y-103101633D01*
X118433368Y-103308476D01*
X118607760Y-103425001D01*
X118433368Y-103541526D01*
X118226525Y-103748369D01*
X118064010Y-103991590D01*
X117952068Y-104261843D01*
X117895000Y-104548741D01*
X117895000Y-104841261D01*
X117952068Y-105128159D01*
X118064010Y-105398412D01*
X118226525Y-105641633D01*
X118433368Y-105848476D01*
X118676589Y-106010991D01*
X118698339Y-106020000D01*
X118142279Y-106020000D01*
X117992131Y-106005278D01*
X117878754Y-105971047D01*
X117774183Y-105915446D01*
X117682405Y-105840594D01*
X117606909Y-105749335D01*
X117550581Y-105645160D01*
X117515560Y-105532024D01*
X117500000Y-105383979D01*
X117500000Y-76232279D01*
X117514722Y-76082131D01*
X117548953Y-75968754D01*
X117604555Y-75864181D01*
X117679407Y-75772404D01*
X117770664Y-75696909D01*
X117874844Y-75640581D01*
X117966479Y-75612214D01*
X117940498Y-75660821D01*
X117904188Y-75780519D01*
X117891928Y-75905001D01*
X117891928Y-77605001D01*
X117904188Y-77729483D01*
X117940498Y-77849181D01*
X117999463Y-77959495D01*
X118078815Y-78056186D01*
X118175506Y-78135538D01*
X118285820Y-78194503D01*
X118366466Y-78218967D01*
X118282412Y-78294732D01*
X118108359Y-78528081D01*
X117983175Y-78790902D01*
X117938524Y-78938111D01*
X118059845Y-79168001D01*
X119253000Y-79168001D01*
X119253000Y-79148001D01*
X119507000Y-79148001D01*
X119507000Y-79168001D01*
X120700155Y-79168001D01*
X120821476Y-78938111D01*
X120776825Y-78790902D01*
X120651641Y-78528081D01*
X120477588Y-78294732D01*
X120393534Y-78218967D01*
X120474180Y-78194503D01*
X120584494Y-78135538D01*
X120681185Y-78056186D01*
X120760537Y-77959495D01*
X120819502Y-77849181D01*
X120855812Y-77729483D01*
X120868072Y-77605001D01*
X120868072Y-77515001D01*
X122020200Y-77515001D01*
X122360001Y-77854802D01*
X122360001Y-77931928D01*
X121620000Y-77931928D01*
X121495518Y-77944188D01*
X121375820Y-77980498D01*
X121265506Y-78039463D01*
X121168815Y-78118815D01*
X121089463Y-78215506D01*
X121030498Y-78325820D01*
X120994188Y-78445518D01*
X120981928Y-78570000D01*
X120981928Y-79770000D01*
X120994188Y-79894482D01*
X121030498Y-80014180D01*
X121089463Y-80124494D01*
X121126809Y-80170000D01*
X121089463Y-80215506D01*
X121030498Y-80325820D01*
X120994188Y-80445518D01*
X120981928Y-80570000D01*
X120985000Y-80884250D01*
X121143750Y-81043000D01*
X122993000Y-81043000D01*
X122993000Y-81023000D01*
X123247000Y-81023000D01*
X123247000Y-81043000D01*
X125096250Y-81043000D01*
X125255000Y-80884250D01*
X125258072Y-80570000D01*
X125245812Y-80445518D01*
X125209502Y-80325820D01*
X125150537Y-80215506D01*
X125113191Y-80170000D01*
X125150537Y-80124494D01*
X125209502Y-80014180D01*
X125245812Y-79894482D01*
X125258072Y-79770000D01*
X125258072Y-78570000D01*
X125245812Y-78445518D01*
X125209502Y-78325820D01*
X125150537Y-78215506D01*
X125071185Y-78118815D01*
X124974494Y-78039463D01*
X124864180Y-77980498D01*
X124744482Y-77944188D01*
X124620000Y-77931928D01*
X123880000Y-77931928D01*
X123880000Y-77577322D01*
X123883676Y-77539999D01*
X123880000Y-77502676D01*
X123880000Y-77502667D01*
X123869003Y-77391014D01*
X123825546Y-77247753D01*
X123754974Y-77115724D01*
X123660001Y-76999999D01*
X123631002Y-76976201D01*
X122898804Y-76244003D01*
X122875002Y-76215000D01*
X122759277Y-76120027D01*
X122627248Y-76049455D01*
X122483987Y-76005998D01*
X122372334Y-75995001D01*
X122372323Y-75995001D01*
X122335001Y-75991325D01*
X122297679Y-75995001D01*
X120868072Y-75995001D01*
X120868072Y-75905001D01*
X120855812Y-75780519D01*
X120819502Y-75660821D01*
X120781647Y-75590000D01*
X148458353Y-75590000D01*
X148420498Y-75660821D01*
%TA.AperFunction,Conductor*%
D15*
G36*
X148420498Y-75660821D02*
G01*
X148384188Y-75780519D01*
X148371928Y-75905001D01*
X148371928Y-75995001D01*
X148072332Y-75995001D01*
X148034999Y-75991324D01*
X147997666Y-75995001D01*
X147886013Y-76005998D01*
X147742752Y-76049455D01*
X147610723Y-76120027D01*
X147494998Y-76215000D01*
X147471200Y-76243998D01*
X145783271Y-77931928D01*
X144620000Y-77931928D01*
X144495518Y-77944188D01*
X144375820Y-77980498D01*
X144265506Y-78039463D01*
X144168815Y-78118815D01*
X144089463Y-78215506D01*
X144030498Y-78325820D01*
X143994188Y-78445518D01*
X143981928Y-78570000D01*
X143981928Y-79770000D01*
X143994188Y-79894482D01*
X144030498Y-80014180D01*
X144089463Y-80124494D01*
X144126809Y-80170000D01*
X144089463Y-80215506D01*
X144030498Y-80325820D01*
X143994188Y-80445518D01*
X143981928Y-80570000D01*
X143981928Y-81770000D01*
X143994188Y-81894482D01*
X144030498Y-82014180D01*
X144089463Y-82124494D01*
X144126809Y-82170000D01*
X144089463Y-82215506D01*
X144030498Y-82325820D01*
X143994188Y-82445518D01*
X143981928Y-82570000D01*
X143981928Y-83770000D01*
X143994188Y-83894482D01*
X144030498Y-84014180D01*
X144089463Y-84124494D01*
X144126809Y-84170000D01*
X144089463Y-84215506D01*
X144030498Y-84325820D01*
X143994188Y-84445518D01*
X143981928Y-84570000D01*
X143981928Y-85770000D01*
X143994188Y-85894482D01*
X144030498Y-86014180D01*
X144089463Y-86124494D01*
X144126809Y-86170000D01*
X144089463Y-86215506D01*
X144030498Y-86325820D01*
X143994188Y-86445518D01*
X143981928Y-86570000D01*
X143981928Y-87770000D01*
X143994188Y-87894482D01*
X144030498Y-88014180D01*
X144089463Y-88124494D01*
X144126809Y-88170000D01*
X144089463Y-88215506D01*
X144030498Y-88325820D01*
X143994188Y-88445518D01*
X143981928Y-88570000D01*
X143981928Y-89770000D01*
X143994188Y-89894482D01*
X144030498Y-90014180D01*
X144089463Y-90124494D01*
X144126809Y-90170000D01*
X144089463Y-90215506D01*
X144030498Y-90325820D01*
X143994188Y-90445518D01*
X143981928Y-90570000D01*
X143981928Y-91770000D01*
X143994188Y-91894482D01*
X144030498Y-92014180D01*
X144089463Y-92124494D01*
X144126809Y-92170000D01*
X144089463Y-92215506D01*
X144030498Y-92325820D01*
X143994188Y-92445518D01*
X143981928Y-92570000D01*
X143981928Y-93770000D01*
X143994188Y-93894482D01*
X144030498Y-94014180D01*
X144089463Y-94124494D01*
X144126809Y-94170000D01*
X144089463Y-94215506D01*
X144030498Y-94325820D01*
X143994188Y-94445518D01*
X143981928Y-94570000D01*
X143981928Y-95770000D01*
X143994188Y-95894482D01*
X144030498Y-96014180D01*
X144089463Y-96124494D01*
X144126809Y-96170000D01*
X144089463Y-96215506D01*
X144030498Y-96325820D01*
X143994188Y-96445518D01*
X143981928Y-96570000D01*
X143981928Y-97770000D01*
X143994188Y-97894482D01*
X144030498Y-98014180D01*
X144089463Y-98124494D01*
X144126809Y-98170000D01*
X144089463Y-98215506D01*
X144030498Y-98325820D01*
X143994188Y-98445518D01*
X143981928Y-98570000D01*
X143981928Y-99770000D01*
X143994188Y-99894482D01*
X144030498Y-100014180D01*
X144089463Y-100124494D01*
X144126809Y-100170000D01*
X144089463Y-100215506D01*
X144030498Y-100325820D01*
X143994188Y-100445518D01*
X143981928Y-100570000D01*
X143981928Y-101770000D01*
X143994188Y-101894482D01*
X144030498Y-102014180D01*
X144089463Y-102124494D01*
X144168815Y-102221185D01*
X144265506Y-102300537D01*
X144375820Y-102359502D01*
X144495518Y-102395812D01*
X144620000Y-102408072D01*
X146498270Y-102408072D01*
X148418790Y-104328593D01*
X148375000Y-104548741D01*
X148375000Y-104841261D01*
X148432068Y-105128159D01*
X148544010Y-105398412D01*
X148706525Y-105641633D01*
X148913368Y-105848476D01*
X149156589Y-106010991D01*
X149178339Y-106020000D01*
X120061661Y-106020000D01*
X120083411Y-106010991D01*
X120326632Y-105848476D01*
X120533475Y-105641633D01*
X120695990Y-105398412D01*
X120807932Y-105128159D01*
X120825634Y-105039167D01*
X123456731Y-102408072D01*
X124620000Y-102408072D01*
X124744482Y-102395812D01*
X124864180Y-102359502D01*
X124974494Y-102300537D01*
X125071185Y-102221185D01*
X125150537Y-102124494D01*
X125209502Y-102014180D01*
X125245812Y-101894482D01*
X125258072Y-101770000D01*
X125258072Y-100570000D01*
X125245812Y-100445518D01*
X125209502Y-100325820D01*
X125150537Y-100215506D01*
X125113191Y-100170000D01*
X125150537Y-100124494D01*
X125209502Y-100014180D01*
X125245812Y-99894482D01*
X125258072Y-99770000D01*
X125258072Y-98570000D01*
X125245812Y-98445518D01*
X125209502Y-98325820D01*
X125150537Y-98215506D01*
X125113191Y-98170000D01*
X125150537Y-98124494D01*
X125209502Y-98014180D01*
X125245812Y-97894482D01*
X125258072Y-97770000D01*
X125258072Y-96570000D01*
X125245812Y-96445518D01*
X125209502Y-96325820D01*
X125150537Y-96215506D01*
X125113191Y-96170000D01*
X125150537Y-96124494D01*
X125209502Y-96014180D01*
X125245812Y-95894482D01*
X125258072Y-95770000D01*
X125258072Y-94570000D01*
X125245812Y-94445518D01*
X125209502Y-94325820D01*
X125150537Y-94215506D01*
X125113191Y-94170000D01*
X125150537Y-94124494D01*
X125209502Y-94014180D01*
X125245812Y-93894482D01*
X125258072Y-93770000D01*
X125255000Y-93455750D01*
X125096250Y-93297000D01*
X123247000Y-93297000D01*
X123247000Y-93317000D01*
X122993000Y-93317000D01*
X122993000Y-93297000D01*
X121143750Y-93297000D01*
X120985000Y-93455750D01*
X120981928Y-93770000D01*
X120994188Y-93894482D01*
X121030498Y-94014180D01*
X121089463Y-94124494D01*
X121126809Y-94170000D01*
X121089463Y-94215506D01*
X121030498Y-94325820D01*
X120994188Y-94445518D01*
X120992299Y-94464697D01*
X120865000Y-94532741D01*
X120865000Y-94407999D01*
X120700156Y-94407999D01*
X120821476Y-94178111D01*
X120776825Y-94030902D01*
X120651641Y-93768081D01*
X120477588Y-93534732D01*
X120261355Y-93339823D01*
X120144466Y-93270196D01*
X120326632Y-93148476D01*
X120533475Y-92941633D01*
X120695990Y-92698412D01*
X120807932Y-92428159D01*
X120865000Y-92141261D01*
X120865000Y-91930000D01*
X121004962Y-91930000D01*
X121030498Y-92014180D01*
X121089463Y-92124494D01*
X121126809Y-92170000D01*
X121089463Y-92215506D01*
X121030498Y-92325820D01*
X120994188Y-92445518D01*
X120981928Y-92570000D01*
X120985000Y-92884250D01*
X121143750Y-93043000D01*
X122993000Y-93043000D01*
X122993000Y-93023000D01*
X123247000Y-93023000D01*
X123247000Y-93043000D01*
X125096250Y-93043000D01*
X125255000Y-92884250D01*
X125258072Y-92570000D01*
X125245812Y-92445518D01*
X125209502Y-92325820D01*
X125150537Y-92215506D01*
X125113191Y-92170000D01*
X125150537Y-92124494D01*
X125209502Y-92014180D01*
X125245812Y-91894482D01*
X125258072Y-91770000D01*
X125258072Y-90570000D01*
X125245812Y-90445518D01*
X125209502Y-90325820D01*
X125150537Y-90215506D01*
X125113191Y-90170000D01*
X125150537Y-90124494D01*
X125209502Y-90014180D01*
X125245812Y-89894482D01*
X125258072Y-89770000D01*
X125258072Y-88570000D01*
X125245812Y-88445518D01*
X125209502Y-88325820D01*
X125150537Y-88215506D01*
X125113191Y-88170000D01*
X125150537Y-88124494D01*
X125209502Y-88014180D01*
X125245812Y-87894482D01*
X125258072Y-87770000D01*
X125258072Y-86570000D01*
X125245812Y-86445518D01*
X125209502Y-86325820D01*
X125150537Y-86215506D01*
X125113191Y-86170000D01*
X125150537Y-86124494D01*
X125209502Y-86014180D01*
X125245812Y-85894482D01*
X125258072Y-85770000D01*
X125258072Y-84570000D01*
X125245812Y-84445518D01*
X125209502Y-84325820D01*
X125150537Y-84215506D01*
X125113191Y-84170000D01*
X125150537Y-84124494D01*
X125209502Y-84014180D01*
X125245812Y-83894482D01*
X125258072Y-83770000D01*
X125258072Y-82570000D01*
X125245812Y-82445518D01*
X125209502Y-82325820D01*
X125150537Y-82215506D01*
X125113191Y-82170000D01*
X125150537Y-82124494D01*
X125209502Y-82014180D01*
X125245812Y-81894482D01*
X125258072Y-81770000D01*
X125255000Y-81455750D01*
X125096250Y-81297000D01*
X123247000Y-81297000D01*
X123247000Y-81317000D01*
X122993000Y-81317000D01*
X122993000Y-81297000D01*
X121143750Y-81297000D01*
X120985000Y-81455750D01*
X120981928Y-81770000D01*
X120994188Y-81894482D01*
X121030498Y-82014180D01*
X121089463Y-82124494D01*
X121126809Y-82170000D01*
X121089463Y-82215506D01*
X121030498Y-82325820D01*
X121010743Y-82390942D01*
X120821210Y-82201409D01*
X120865000Y-81981261D01*
X120865000Y-81688741D01*
X120807932Y-81401843D01*
X120695990Y-81131590D01*
X120533475Y-80888369D01*
X120326632Y-80681526D01*
X120144466Y-80559806D01*
X120261355Y-80490179D01*
X120477588Y-80295270D01*
X120651641Y-80061921D01*
X120776825Y-79799100D01*
X120821476Y-79651891D01*
X120700155Y-79422001D01*
X119507000Y-79422001D01*
X119507000Y-79442001D01*
X119253000Y-79442001D01*
X119253000Y-79422001D01*
X118059845Y-79422001D01*
X117938524Y-79651891D01*
X117983175Y-79799100D01*
X118108359Y-80061921D01*
X118282412Y-80295270D01*
X118498645Y-80490179D01*
X118615534Y-80559806D01*
X118433368Y-80681526D01*
X118226525Y-80888369D01*
X118064010Y-81131590D01*
X117952068Y-81401843D01*
X117895000Y-81688741D01*
X117895000Y-81981261D01*
X117952068Y-82268159D01*
X118064010Y-82538412D01*
X118226525Y-82781633D01*
X118433368Y-82988476D01*
X118607760Y-83105001D01*
X118433368Y-83221526D01*
X118226525Y-83428369D01*
X118064010Y-83671590D01*
X117952068Y-83941843D01*
X117895000Y-84228741D01*
X117895000Y-84521261D01*
X117952068Y-84808159D01*
X118064010Y-85078412D01*
X118226525Y-85321633D01*
X118433368Y-85528476D01*
X118607760Y-85645001D01*
X118433368Y-85761526D01*
X118226525Y-85968369D01*
X118064010Y-86211590D01*
X117952068Y-86481843D01*
X117895000Y-86768741D01*
X117895000Y-87061261D01*
X117952068Y-87348159D01*
X118064010Y-87618412D01*
X118226525Y-87861633D01*
X118433368Y-88068476D01*
X118607760Y-88185001D01*
X118433368Y-88301526D01*
X118226525Y-88508369D01*
X118064010Y-88751590D01*
X117952068Y-89021843D01*
X117895000Y-89308741D01*
X117895000Y-89601261D01*
X117952068Y-89888159D01*
X118064010Y-90158412D01*
X118226525Y-90401633D01*
X118433368Y-90608476D01*
X118607760Y-90725001D01*
X118433368Y-90841526D01*
X118226525Y-91048369D01*
X118064010Y-91291590D01*
X117952068Y-91561843D01*
X117895000Y-91848741D01*
X117895000Y-92141261D01*
X117952068Y-92428159D01*
X118064010Y-92698412D01*
X118226525Y-92941633D01*
X118433368Y-93148476D01*
X118615534Y-93270196D01*
X118498645Y-93339823D01*
X118282412Y-93534732D01*
X118108359Y-93768081D01*
X117983175Y-94030902D01*
X117938524Y-94178111D01*
X118059845Y-94408001D01*
X119253000Y-94408001D01*
X119253000Y-94388001D01*
X119507000Y-94388001D01*
X119507000Y-94408001D01*
X119527000Y-94408001D01*
X119527000Y-94662001D01*
X119507000Y-94662001D01*
X119507000Y-94682001D01*
X119253000Y-94682001D01*
X119253000Y-94662001D01*
X118059845Y-94662001D01*
X117938524Y-94891891D01*
X117983175Y-95039100D01*
X118108359Y-95301921D01*
X118282412Y-95535270D01*
X118498645Y-95730179D01*
X118615534Y-95799806D01*
X118433368Y-95921526D01*
X118226525Y-96128369D01*
X118064010Y-96371590D01*
X117952068Y-96641843D01*
X117895000Y-96928741D01*
X117895000Y-97221261D01*
X117952068Y-97508159D01*
X118064010Y-97778412D01*
X118226525Y-98021633D01*
X118433368Y-98228476D01*
X118607760Y-98345001D01*
X118433368Y-98461526D01*
X118226525Y-98668369D01*
X118064010Y-98911590D01*
X117952068Y-99181843D01*
X117895000Y-99468741D01*
X117895000Y-99761261D01*
X117952068Y-100048159D01*
X118064010Y-100318412D01*
X118226525Y-100561633D01*
X118433368Y-100768476D01*
X118607760Y-100885001D01*
X118433368Y-101001526D01*
X118226525Y-101208369D01*
X118064010Y-101451590D01*
X117952068Y-101721843D01*
X117895000Y-102008741D01*
X117895000Y-102301261D01*
X117952068Y-102588159D01*
X118064010Y-102858412D01*
X118226525Y-103101633D01*
X118433368Y-103308476D01*
X118607760Y-103425001D01*
X118433368Y-103541526D01*
X118226525Y-103748369D01*
X118064010Y-103991590D01*
X117952068Y-104261843D01*
X117895000Y-104548741D01*
X117895000Y-104841261D01*
X117952068Y-105128159D01*
X118064010Y-105398412D01*
X118226525Y-105641633D01*
X118433368Y-105848476D01*
X118676589Y-106010991D01*
X118698339Y-106020000D01*
X118142279Y-106020000D01*
X117992131Y-106005278D01*
X117878754Y-105971047D01*
X117774183Y-105915446D01*
X117682405Y-105840594D01*
X117606909Y-105749335D01*
X117550581Y-105645160D01*
X117515560Y-105532024D01*
X117500000Y-105383979D01*
X117500000Y-76232279D01*
X117514722Y-76082131D01*
X117548953Y-75968754D01*
X117604555Y-75864181D01*
X117679407Y-75772404D01*
X117770664Y-75696909D01*
X117874844Y-75640581D01*
X117966479Y-75612214D01*
X117940498Y-75660821D01*
X117904188Y-75780519D01*
X117891928Y-75905001D01*
X117891928Y-77605001D01*
X117904188Y-77729483D01*
X117940498Y-77849181D01*
X117999463Y-77959495D01*
X118078815Y-78056186D01*
X118175506Y-78135538D01*
X118285820Y-78194503D01*
X118366466Y-78218967D01*
X118282412Y-78294732D01*
X118108359Y-78528081D01*
X117983175Y-78790902D01*
X117938524Y-78938111D01*
X118059845Y-79168001D01*
X119253000Y-79168001D01*
X119253000Y-79148001D01*
X119507000Y-79148001D01*
X119507000Y-79168001D01*
X120700155Y-79168001D01*
X120821476Y-78938111D01*
X120776825Y-78790902D01*
X120651641Y-78528081D01*
X120477588Y-78294732D01*
X120393534Y-78218967D01*
X120474180Y-78194503D01*
X120584494Y-78135538D01*
X120681185Y-78056186D01*
X120760537Y-77959495D01*
X120819502Y-77849181D01*
X120855812Y-77729483D01*
X120868072Y-77605001D01*
X120868072Y-77515001D01*
X122020200Y-77515001D01*
X122360001Y-77854802D01*
X122360001Y-77931928D01*
X121620000Y-77931928D01*
X121495518Y-77944188D01*
X121375820Y-77980498D01*
X121265506Y-78039463D01*
X121168815Y-78118815D01*
X121089463Y-78215506D01*
X121030498Y-78325820D01*
X120994188Y-78445518D01*
X120981928Y-78570000D01*
X120981928Y-79770000D01*
X120994188Y-79894482D01*
X121030498Y-80014180D01*
X121089463Y-80124494D01*
X121126809Y-80170000D01*
X121089463Y-80215506D01*
X121030498Y-80325820D01*
X120994188Y-80445518D01*
X120981928Y-80570000D01*
X120985000Y-80884250D01*
X121143750Y-81043000D01*
X122993000Y-81043000D01*
X122993000Y-81023000D01*
X123247000Y-81023000D01*
X123247000Y-81043000D01*
X125096250Y-81043000D01*
X125255000Y-80884250D01*
X125258072Y-80570000D01*
X125245812Y-80445518D01*
X125209502Y-80325820D01*
X125150537Y-80215506D01*
X125113191Y-80170000D01*
X125150537Y-80124494D01*
X125209502Y-80014180D01*
X125245812Y-79894482D01*
X125258072Y-79770000D01*
X125258072Y-78570000D01*
X125245812Y-78445518D01*
X125209502Y-78325820D01*
X125150537Y-78215506D01*
X125071185Y-78118815D01*
X124974494Y-78039463D01*
X124864180Y-77980498D01*
X124744482Y-77944188D01*
X124620000Y-77931928D01*
X123880000Y-77931928D01*
X123880000Y-77577322D01*
X123883676Y-77539999D01*
X123880000Y-77502676D01*
X123880000Y-77502667D01*
X123869003Y-77391014D01*
X123825546Y-77247753D01*
X123754974Y-77115724D01*
X123660001Y-76999999D01*
X123631002Y-76976201D01*
X122898804Y-76244003D01*
X122875002Y-76215000D01*
X122759277Y-76120027D01*
X122627248Y-76049455D01*
X122483987Y-76005998D01*
X122372334Y-75995001D01*
X122372323Y-75995001D01*
X122335001Y-75991325D01*
X122297679Y-75995001D01*
X120868072Y-75995001D01*
X120868072Y-75905001D01*
X120855812Y-75780519D01*
X120819502Y-75660821D01*
X120781647Y-75590000D01*
X148458353Y-75590000D01*
X148420498Y-75660821D01*
G37*
%TD.AperFunction*%
%TD*%
M02*
