%TF.GenerationSoftware,KiCad,Pcbnew,(5.1.12)-1*%
%TF.CreationDate,2022-06-22T11:17:58+02:00*%
%TF.ProjectId,ai-thinker-vc01,61692d74-6869-46e6-9b65-722d76633031,rev?*%
%TF.SameCoordinates,Original*%
%TF.FileFunction,Legend,Top*%
%TF.FilePolarity,Positive*%
%FSLAX46Y46*%
G04 Gerber Fmt 4.6, Leading zero omitted, Abs format (unit mm)*
G04 Created by KiCad (PCBNEW (5.1.12)-1) date 2022-06-22 11:17:58*
%MOMM*%
%LPD*%
G01*
G04 APERTURE LIST*
%ADD10C,0.100000*%
%ADD11C,0.150000*%
%ADD12C,0.120000*%
%ADD13C,0.200000*%
%ADD14C,0.050000*%
G04 APERTURE END LIST*
D10*
X151441190Y-75838190D02*
X151403095Y-75952476D01*
X151403095Y-76142952D01*
X151441190Y-76219142D01*
X151479285Y-76257238D01*
X151555476Y-76295333D01*
X151631666Y-76295333D01*
X151707857Y-76257238D01*
X151745952Y-76219142D01*
X151784047Y-76142952D01*
X151822142Y-75990571D01*
X151860238Y-75914380D01*
X151898333Y-75876285D01*
X151974523Y-75838190D01*
X152050714Y-75838190D01*
X152126904Y-75876285D01*
X152165000Y-75914380D01*
X152203095Y-75990571D01*
X152203095Y-76181047D01*
X152165000Y-76295333D01*
X151403095Y-76638190D02*
X152203095Y-76638190D01*
X152203095Y-76942952D01*
X152165000Y-77019142D01*
X152126904Y-77057238D01*
X152050714Y-77095333D01*
X151936428Y-77095333D01*
X151860238Y-77057238D01*
X151822142Y-77019142D01*
X151784047Y-76942952D01*
X151784047Y-76638190D01*
X151707857Y-77438190D02*
X151707857Y-78047714D01*
X151403095Y-77742952D02*
X152012619Y-77742952D01*
X151441190Y-78251190D02*
X151403095Y-78365476D01*
X151403095Y-78555952D01*
X151441190Y-78632142D01*
X151479285Y-78670238D01*
X151555476Y-78708333D01*
X151631666Y-78708333D01*
X151707857Y-78670238D01*
X151745952Y-78632142D01*
X151784047Y-78555952D01*
X151822142Y-78403571D01*
X151860238Y-78327380D01*
X151898333Y-78289285D01*
X151974523Y-78251190D01*
X152050714Y-78251190D01*
X152126904Y-78289285D01*
X152165000Y-78327380D01*
X152203095Y-78403571D01*
X152203095Y-78594047D01*
X152165000Y-78708333D01*
X151403095Y-79051190D02*
X152203095Y-79051190D01*
X152203095Y-79355952D01*
X152165000Y-79432142D01*
X152126904Y-79470238D01*
X152050714Y-79508333D01*
X151936428Y-79508333D01*
X151860238Y-79470238D01*
X151822142Y-79432142D01*
X151784047Y-79355952D01*
X151784047Y-79051190D01*
X151707857Y-79851190D02*
X151707857Y-80460714D01*
X151403095Y-80962619D02*
X152203095Y-80962619D01*
X152203095Y-81153095D01*
X152165000Y-81267380D01*
X152088809Y-81343571D01*
X152012619Y-81381666D01*
X151860238Y-81419761D01*
X151745952Y-81419761D01*
X151593571Y-81381666D01*
X151517380Y-81343571D01*
X151441190Y-81267380D01*
X151403095Y-81153095D01*
X151403095Y-80962619D01*
X151631666Y-81724523D02*
X151631666Y-82105476D01*
X151403095Y-81648333D02*
X152203095Y-81915000D01*
X151403095Y-82181666D01*
X151403095Y-82905476D02*
X151784047Y-82638809D01*
X151403095Y-82448333D02*
X152203095Y-82448333D01*
X152203095Y-82753095D01*
X152165000Y-82829285D01*
X152126904Y-82867380D01*
X152050714Y-82905476D01*
X151936428Y-82905476D01*
X151860238Y-82867380D01*
X151822142Y-82829285D01*
X151784047Y-82753095D01*
X151784047Y-82448333D01*
X151403095Y-83578809D02*
X152203095Y-83578809D01*
X152203095Y-83769285D01*
X152165000Y-83883571D01*
X152088809Y-83959761D01*
X152012619Y-83997857D01*
X151860238Y-84035952D01*
X151745952Y-84035952D01*
X151593571Y-83997857D01*
X151517380Y-83959761D01*
X151441190Y-83883571D01*
X151403095Y-83769285D01*
X151403095Y-83578809D01*
X151631666Y-84340714D02*
X151631666Y-84721666D01*
X151403095Y-84264523D02*
X152203095Y-84531190D01*
X151403095Y-84797857D01*
X151403095Y-85445476D02*
X151403095Y-85064523D01*
X152203095Y-85064523D01*
X151631666Y-86169619D02*
X151631666Y-86550571D01*
X151403095Y-86093428D02*
X152203095Y-86360095D01*
X151403095Y-86626761D01*
X152126904Y-86855333D02*
X152165000Y-86893428D01*
X152203095Y-86969619D01*
X152203095Y-87160095D01*
X152165000Y-87236285D01*
X152126904Y-87274380D01*
X152050714Y-87312476D01*
X151974523Y-87312476D01*
X151860238Y-87274380D01*
X151403095Y-86817238D01*
X151403095Y-87312476D01*
X152203095Y-87998190D02*
X152203095Y-87845809D01*
X152165000Y-87769619D01*
X152126904Y-87731523D01*
X152012619Y-87655333D01*
X151860238Y-87617238D01*
X151555476Y-87617238D01*
X151479285Y-87655333D01*
X151441190Y-87693428D01*
X151403095Y-87769619D01*
X151403095Y-87922000D01*
X151441190Y-87998190D01*
X151479285Y-88036285D01*
X151555476Y-88074380D01*
X151745952Y-88074380D01*
X151822142Y-88036285D01*
X151860238Y-87998190D01*
X151898333Y-87922000D01*
X151898333Y-87769619D01*
X151860238Y-87693428D01*
X151822142Y-87655333D01*
X151745952Y-87617238D01*
X151403095Y-88703285D02*
X152203095Y-88703285D01*
X151631666Y-88969952D01*
X152203095Y-89236619D01*
X151403095Y-89236619D01*
X151403095Y-89617571D02*
X152203095Y-89617571D01*
X151707857Y-89693761D02*
X151403095Y-89922333D01*
X151936428Y-89922333D02*
X151631666Y-89617571D01*
X151707857Y-90265190D02*
X151707857Y-90874714D01*
X151403095Y-90569952D02*
X152012619Y-90569952D01*
X151403095Y-91116285D02*
X152203095Y-91116285D01*
X151631666Y-91382952D01*
X152203095Y-91649619D01*
X151403095Y-91649619D01*
X151403095Y-92030571D02*
X152203095Y-92030571D01*
X151707857Y-92106761D02*
X151403095Y-92335333D01*
X151936428Y-92335333D02*
X151631666Y-92030571D01*
X151707857Y-92678190D02*
X151707857Y-93287714D01*
X151403095Y-93986428D02*
X152203095Y-93986428D01*
X151403095Y-94443571D01*
X152203095Y-94443571D01*
X151479285Y-95281666D02*
X151441190Y-95243571D01*
X151403095Y-95129285D01*
X151403095Y-95053095D01*
X151441190Y-94938809D01*
X151517380Y-94862619D01*
X151593571Y-94824523D01*
X151745952Y-94786428D01*
X151860238Y-94786428D01*
X152012619Y-94824523D01*
X152088809Y-94862619D01*
X152165000Y-94938809D01*
X152203095Y-95053095D01*
X152203095Y-95129285D01*
X152165000Y-95243571D01*
X152126904Y-95281666D01*
X151822142Y-96831190D02*
X151784047Y-96945476D01*
X151745952Y-96983571D01*
X151669761Y-97021666D01*
X151555476Y-97021666D01*
X151479285Y-96983571D01*
X151441190Y-96945476D01*
X151403095Y-96869285D01*
X151403095Y-96564523D01*
X152203095Y-96564523D01*
X152203095Y-96831190D01*
X152165000Y-96907380D01*
X152126904Y-96945476D01*
X152050714Y-96983571D01*
X151974523Y-96983571D01*
X151898333Y-96945476D01*
X151860238Y-96907380D01*
X151822142Y-96831190D01*
X151822142Y-96564523D01*
X151403095Y-97783571D02*
X151403095Y-97326428D01*
X151403095Y-97555000D02*
X152203095Y-97555000D01*
X152088809Y-97478809D01*
X152012619Y-97402619D01*
X151974523Y-97326428D01*
X151822142Y-99371190D02*
X151784047Y-99485476D01*
X151745952Y-99523571D01*
X151669761Y-99561666D01*
X151555476Y-99561666D01*
X151479285Y-99523571D01*
X151441190Y-99485476D01*
X151403095Y-99409285D01*
X151403095Y-99104523D01*
X152203095Y-99104523D01*
X152203095Y-99371190D01*
X152165000Y-99447380D01*
X152126904Y-99485476D01*
X152050714Y-99523571D01*
X151974523Y-99523571D01*
X151898333Y-99485476D01*
X151860238Y-99447380D01*
X151822142Y-99371190D01*
X151822142Y-99104523D01*
X152203095Y-100056904D02*
X152203095Y-100133095D01*
X152165000Y-100209285D01*
X152126904Y-100247380D01*
X152050714Y-100285476D01*
X151898333Y-100323571D01*
X151707857Y-100323571D01*
X151555476Y-100285476D01*
X151479285Y-100247380D01*
X151441190Y-100209285D01*
X151403095Y-100133095D01*
X151403095Y-100056904D01*
X151441190Y-99980714D01*
X151479285Y-99942619D01*
X151555476Y-99904523D01*
X151707857Y-99866428D01*
X151898333Y-99866428D01*
X152050714Y-99904523D01*
X152126904Y-99942619D01*
X152165000Y-99980714D01*
X152203095Y-100056904D01*
X151403095Y-101479428D02*
X152203095Y-101479428D01*
X151403095Y-101936571D01*
X152203095Y-101936571D01*
X151479285Y-102774666D02*
X151441190Y-102736571D01*
X151403095Y-102622285D01*
X151403095Y-102546095D01*
X151441190Y-102431809D01*
X151517380Y-102355619D01*
X151593571Y-102317523D01*
X151745952Y-102279428D01*
X151860238Y-102279428D01*
X152012619Y-102317523D01*
X152088809Y-102355619D01*
X152165000Y-102431809D01*
X152203095Y-102546095D01*
X152203095Y-102622285D01*
X152165000Y-102736571D01*
X152126904Y-102774666D01*
X151631666Y-103822619D02*
X151631666Y-104203571D01*
X151403095Y-103746428D02*
X152203095Y-104013095D01*
X151403095Y-104279761D01*
X152126904Y-104508333D02*
X152165000Y-104546428D01*
X152203095Y-104622619D01*
X152203095Y-104813095D01*
X152165000Y-104889285D01*
X152126904Y-104927380D01*
X152050714Y-104965476D01*
X151974523Y-104965476D01*
X151860238Y-104927380D01*
X151403095Y-104470238D01*
X151403095Y-104965476D01*
X152203095Y-105689285D02*
X152203095Y-105308333D01*
X151822142Y-105270238D01*
X151860238Y-105308333D01*
X151898333Y-105384523D01*
X151898333Y-105575000D01*
X151860238Y-105651190D01*
X151822142Y-105689285D01*
X151745952Y-105727380D01*
X151555476Y-105727380D01*
X151479285Y-105689285D01*
X151441190Y-105651190D01*
X151403095Y-105575000D01*
X151403095Y-105384523D01*
X151441190Y-105308333D01*
X151479285Y-105270238D01*
X117075000Y-95097523D02*
X117036904Y-95173714D01*
X117036904Y-95288000D01*
X117075000Y-95402285D01*
X117151190Y-95478476D01*
X117227380Y-95516571D01*
X117379761Y-95554666D01*
X117494047Y-95554666D01*
X117646428Y-95516571D01*
X117722619Y-95478476D01*
X117798809Y-95402285D01*
X117836904Y-95288000D01*
X117836904Y-95211809D01*
X117798809Y-95097523D01*
X117760714Y-95059428D01*
X117494047Y-95059428D01*
X117494047Y-95211809D01*
X117836904Y-94716571D02*
X117036904Y-94716571D01*
X117836904Y-94259428D01*
X117036904Y-94259428D01*
X117836904Y-93878476D02*
X117036904Y-93878476D01*
X117036904Y-93688000D01*
X117075000Y-93573714D01*
X117151190Y-93497523D01*
X117227380Y-93459428D01*
X117379761Y-93421333D01*
X117494047Y-93421333D01*
X117646428Y-93459428D01*
X117722619Y-93497523D01*
X117798809Y-93573714D01*
X117836904Y-93688000D01*
X117836904Y-93878476D01*
X117798809Y-105911523D02*
X117836904Y-105797238D01*
X117836904Y-105606761D01*
X117798809Y-105530571D01*
X117760714Y-105492476D01*
X117684523Y-105454380D01*
X117608333Y-105454380D01*
X117532142Y-105492476D01*
X117494047Y-105530571D01*
X117455952Y-105606761D01*
X117417857Y-105759142D01*
X117379761Y-105835333D01*
X117341666Y-105873428D01*
X117265476Y-105911523D01*
X117189285Y-105911523D01*
X117113095Y-105873428D01*
X117075000Y-105835333D01*
X117036904Y-105759142D01*
X117036904Y-105568666D01*
X117075000Y-105454380D01*
X117836904Y-105111523D02*
X117036904Y-105111523D01*
X117036904Y-104921047D01*
X117075000Y-104806761D01*
X117151190Y-104730571D01*
X117227380Y-104692476D01*
X117379761Y-104654380D01*
X117494047Y-104654380D01*
X117646428Y-104692476D01*
X117722619Y-104730571D01*
X117798809Y-104806761D01*
X117836904Y-104921047D01*
X117836904Y-105111523D01*
X117036904Y-103930571D02*
X117036904Y-104311523D01*
X117417857Y-104349619D01*
X117379761Y-104311523D01*
X117341666Y-104235333D01*
X117341666Y-104044857D01*
X117379761Y-103968666D01*
X117417857Y-103930571D01*
X117494047Y-103892476D01*
X117684523Y-103892476D01*
X117760714Y-103930571D01*
X117798809Y-103968666D01*
X117836904Y-104044857D01*
X117836904Y-104235333D01*
X117798809Y-104311523D01*
X117760714Y-104349619D01*
X117798809Y-103244523D02*
X117836904Y-103130238D01*
X117836904Y-102939761D01*
X117798809Y-102863571D01*
X117760714Y-102825476D01*
X117684523Y-102787380D01*
X117608333Y-102787380D01*
X117532142Y-102825476D01*
X117494047Y-102863571D01*
X117455952Y-102939761D01*
X117417857Y-103092142D01*
X117379761Y-103168333D01*
X117341666Y-103206428D01*
X117265476Y-103244523D01*
X117189285Y-103244523D01*
X117113095Y-103206428D01*
X117075000Y-103168333D01*
X117036904Y-103092142D01*
X117036904Y-102901666D01*
X117075000Y-102787380D01*
X117760714Y-101987380D02*
X117798809Y-102025476D01*
X117836904Y-102139761D01*
X117836904Y-102215952D01*
X117798809Y-102330238D01*
X117722619Y-102406428D01*
X117646428Y-102444523D01*
X117494047Y-102482619D01*
X117379761Y-102482619D01*
X117227380Y-102444523D01*
X117151190Y-102406428D01*
X117075000Y-102330238D01*
X117036904Y-102215952D01*
X117036904Y-102139761D01*
X117075000Y-102025476D01*
X117113095Y-101987380D01*
X117036904Y-101263571D02*
X117036904Y-101644523D01*
X117417857Y-101682619D01*
X117379761Y-101644523D01*
X117341666Y-101568333D01*
X117341666Y-101377857D01*
X117379761Y-101301666D01*
X117417857Y-101263571D01*
X117494047Y-101225476D01*
X117684523Y-101225476D01*
X117760714Y-101263571D01*
X117798809Y-101301666D01*
X117836904Y-101377857D01*
X117836904Y-101568333D01*
X117798809Y-101644523D01*
X117760714Y-101682619D01*
X117798809Y-100704523D02*
X117836904Y-100590238D01*
X117836904Y-100399761D01*
X117798809Y-100323571D01*
X117760714Y-100285476D01*
X117684523Y-100247380D01*
X117608333Y-100247380D01*
X117532142Y-100285476D01*
X117494047Y-100323571D01*
X117455952Y-100399761D01*
X117417857Y-100552142D01*
X117379761Y-100628333D01*
X117341666Y-100666428D01*
X117265476Y-100704523D01*
X117189285Y-100704523D01*
X117113095Y-100666428D01*
X117075000Y-100628333D01*
X117036904Y-100552142D01*
X117036904Y-100361666D01*
X117075000Y-100247380D01*
X117836904Y-99904523D02*
X117036904Y-99904523D01*
X117036904Y-99714047D01*
X117075000Y-99599761D01*
X117151190Y-99523571D01*
X117227380Y-99485476D01*
X117379761Y-99447380D01*
X117494047Y-99447380D01*
X117646428Y-99485476D01*
X117722619Y-99523571D01*
X117798809Y-99599761D01*
X117836904Y-99714047D01*
X117836904Y-99904523D01*
X117036904Y-99180714D02*
X117036904Y-98685476D01*
X117341666Y-98952142D01*
X117341666Y-98837857D01*
X117379761Y-98761666D01*
X117417857Y-98723571D01*
X117494047Y-98685476D01*
X117684523Y-98685476D01*
X117760714Y-98723571D01*
X117798809Y-98761666D01*
X117836904Y-98837857D01*
X117836904Y-99066428D01*
X117798809Y-99142619D01*
X117760714Y-99180714D01*
X117798809Y-98164523D02*
X117836904Y-98050238D01*
X117836904Y-97859761D01*
X117798809Y-97783571D01*
X117760714Y-97745476D01*
X117684523Y-97707380D01*
X117608333Y-97707380D01*
X117532142Y-97745476D01*
X117494047Y-97783571D01*
X117455952Y-97859761D01*
X117417857Y-98012142D01*
X117379761Y-98088333D01*
X117341666Y-98126428D01*
X117265476Y-98164523D01*
X117189285Y-98164523D01*
X117113095Y-98126428D01*
X117075000Y-98088333D01*
X117036904Y-98012142D01*
X117036904Y-97821666D01*
X117075000Y-97707380D01*
X117760714Y-96907380D02*
X117798809Y-96945476D01*
X117836904Y-97059761D01*
X117836904Y-97135952D01*
X117798809Y-97250238D01*
X117722619Y-97326428D01*
X117646428Y-97364523D01*
X117494047Y-97402619D01*
X117379761Y-97402619D01*
X117227380Y-97364523D01*
X117151190Y-97326428D01*
X117075000Y-97250238D01*
X117036904Y-97135952D01*
X117036904Y-97059761D01*
X117075000Y-96945476D01*
X117113095Y-96907380D01*
X117036904Y-96640714D02*
X117036904Y-96145476D01*
X117341666Y-96412142D01*
X117341666Y-96297857D01*
X117379761Y-96221666D01*
X117417857Y-96183571D01*
X117494047Y-96145476D01*
X117684523Y-96145476D01*
X117760714Y-96183571D01*
X117798809Y-96221666D01*
X117836904Y-96297857D01*
X117836904Y-96526428D01*
X117798809Y-96602619D01*
X117760714Y-96640714D01*
X117036904Y-92786095D02*
X117036904Y-92290857D01*
X117341666Y-92557523D01*
X117341666Y-92443238D01*
X117379761Y-92367047D01*
X117417857Y-92328952D01*
X117494047Y-92290857D01*
X117684523Y-92290857D01*
X117760714Y-92328952D01*
X117798809Y-92367047D01*
X117836904Y-92443238D01*
X117836904Y-92671809D01*
X117798809Y-92748000D01*
X117760714Y-92786095D01*
X117760714Y-91948000D02*
X117798809Y-91909904D01*
X117836904Y-91948000D01*
X117798809Y-91986095D01*
X117760714Y-91948000D01*
X117836904Y-91948000D01*
X117036904Y-91643238D02*
X117036904Y-91148000D01*
X117341666Y-91414666D01*
X117341666Y-91300380D01*
X117379761Y-91224190D01*
X117417857Y-91186095D01*
X117494047Y-91148000D01*
X117684523Y-91148000D01*
X117760714Y-91186095D01*
X117798809Y-91224190D01*
X117836904Y-91300380D01*
X117836904Y-91528952D01*
X117798809Y-91605142D01*
X117760714Y-91643238D01*
X117608333Y-90487380D02*
X117608333Y-90106428D01*
X117836904Y-90563571D02*
X117036904Y-90296904D01*
X117836904Y-90030238D01*
X117113095Y-89801666D02*
X117075000Y-89763571D01*
X117036904Y-89687380D01*
X117036904Y-89496904D01*
X117075000Y-89420714D01*
X117113095Y-89382619D01*
X117189285Y-89344523D01*
X117265476Y-89344523D01*
X117379761Y-89382619D01*
X117836904Y-89839761D01*
X117836904Y-89344523D01*
X117036904Y-89077857D02*
X117036904Y-88544523D01*
X117836904Y-88887380D01*
X117417857Y-87318809D02*
X117455952Y-87204523D01*
X117494047Y-87166428D01*
X117570238Y-87128333D01*
X117684523Y-87128333D01*
X117760714Y-87166428D01*
X117798809Y-87204523D01*
X117836904Y-87280714D01*
X117836904Y-87585476D01*
X117036904Y-87585476D01*
X117036904Y-87318809D01*
X117075000Y-87242619D01*
X117113095Y-87204523D01*
X117189285Y-87166428D01*
X117265476Y-87166428D01*
X117341666Y-87204523D01*
X117379761Y-87242619D01*
X117417857Y-87318809D01*
X117417857Y-87585476D01*
X117379761Y-86671190D02*
X117341666Y-86747380D01*
X117303571Y-86785476D01*
X117227380Y-86823571D01*
X117189285Y-86823571D01*
X117113095Y-86785476D01*
X117075000Y-86747380D01*
X117036904Y-86671190D01*
X117036904Y-86518809D01*
X117075000Y-86442619D01*
X117113095Y-86404523D01*
X117189285Y-86366428D01*
X117227380Y-86366428D01*
X117303571Y-86404523D01*
X117341666Y-86442619D01*
X117379761Y-86518809D01*
X117379761Y-86671190D01*
X117417857Y-86747380D01*
X117455952Y-86785476D01*
X117532142Y-86823571D01*
X117684523Y-86823571D01*
X117760714Y-86785476D01*
X117798809Y-86747380D01*
X117836904Y-86671190D01*
X117836904Y-86518809D01*
X117798809Y-86442619D01*
X117760714Y-86404523D01*
X117684523Y-86366428D01*
X117532142Y-86366428D01*
X117455952Y-86404523D01*
X117417857Y-86442619D01*
X117379761Y-86518809D01*
X117836904Y-84715285D02*
X117455952Y-84981952D01*
X117836904Y-85172428D02*
X117036904Y-85172428D01*
X117036904Y-84867666D01*
X117075000Y-84791476D01*
X117113095Y-84753380D01*
X117189285Y-84715285D01*
X117303571Y-84715285D01*
X117379761Y-84753380D01*
X117417857Y-84791476D01*
X117455952Y-84867666D01*
X117455952Y-85172428D01*
X117036904Y-84448619D02*
X117836904Y-83915285D01*
X117036904Y-83915285D02*
X117836904Y-84448619D01*
X117836904Y-83191476D02*
X117836904Y-83648619D01*
X117836904Y-83420047D02*
X117036904Y-83420047D01*
X117151190Y-83496238D01*
X117227380Y-83572428D01*
X117265476Y-83648619D01*
X117036904Y-82778476D02*
X117036904Y-82321333D01*
X117836904Y-82549904D02*
X117036904Y-82549904D01*
X117036904Y-82130857D02*
X117836904Y-81597523D01*
X117036904Y-81597523D02*
X117836904Y-82130857D01*
X117836904Y-80873714D02*
X117836904Y-81330857D01*
X117836904Y-81102285D02*
X117036904Y-81102285D01*
X117151190Y-81178476D01*
X117227380Y-81254666D01*
X117265476Y-81330857D01*
X117075000Y-79857523D02*
X117036904Y-79933714D01*
X117036904Y-80048000D01*
X117075000Y-80162285D01*
X117151190Y-80238476D01*
X117227380Y-80276571D01*
X117379761Y-80314666D01*
X117494047Y-80314666D01*
X117646428Y-80276571D01*
X117722619Y-80238476D01*
X117798809Y-80162285D01*
X117836904Y-80048000D01*
X117836904Y-79971809D01*
X117798809Y-79857523D01*
X117760714Y-79819428D01*
X117494047Y-79819428D01*
X117494047Y-79971809D01*
X117836904Y-79476571D02*
X117036904Y-79476571D01*
X117836904Y-79019428D01*
X117036904Y-79019428D01*
X117836904Y-78638476D02*
X117036904Y-78638476D01*
X117036904Y-78448000D01*
X117075000Y-78333714D01*
X117151190Y-78257523D01*
X117227380Y-78219428D01*
X117379761Y-78181333D01*
X117494047Y-78181333D01*
X117646428Y-78219428D01*
X117722619Y-78257523D01*
X117798809Y-78333714D01*
X117836904Y-78448000D01*
X117836904Y-78638476D01*
X117036904Y-77660380D02*
X117836904Y-77393714D01*
X117036904Y-77127047D01*
X117798809Y-76517523D02*
X117836904Y-76593714D01*
X117836904Y-76746095D01*
X117798809Y-76822285D01*
X117760714Y-76860380D01*
X117684523Y-76898476D01*
X117455952Y-76898476D01*
X117379761Y-76860380D01*
X117341666Y-76822285D01*
X117303571Y-76746095D01*
X117303571Y-76593714D01*
X117341666Y-76517523D01*
X117798809Y-75831809D02*
X117836904Y-75908000D01*
X117836904Y-76060380D01*
X117798809Y-76136571D01*
X117760714Y-76174666D01*
X117684523Y-76212761D01*
X117455952Y-76212761D01*
X117379761Y-76174666D01*
X117341666Y-76136571D01*
X117303571Y-76060380D01*
X117303571Y-75908000D01*
X117341666Y-75831809D01*
X131635809Y-76688952D02*
X131597714Y-76650857D01*
X131521523Y-76612761D01*
X131445333Y-76612761D01*
X131369142Y-76650857D01*
X131331047Y-76688952D01*
X131292952Y-76765142D01*
X131292952Y-76841333D01*
X131331047Y-76917523D01*
X131369142Y-76955619D01*
X131445333Y-76993714D01*
X131521523Y-76993714D01*
X131597714Y-76955619D01*
X131635809Y-76917523D01*
X131635809Y-76612761D02*
X131635809Y-76917523D01*
X131673904Y-76955619D01*
X131712000Y-76955619D01*
X131788190Y-76917523D01*
X131826285Y-76841333D01*
X131826285Y-76650857D01*
X131750095Y-76536571D01*
X131635809Y-76460380D01*
X131483428Y-76422285D01*
X131331047Y-76460380D01*
X131216761Y-76536571D01*
X131140571Y-76650857D01*
X131102476Y-76803238D01*
X131140571Y-76955619D01*
X131216761Y-77069904D01*
X131331047Y-77146095D01*
X131483428Y-77184190D01*
X131635809Y-77146095D01*
X131750095Y-77069904D01*
X132131047Y-77031809D02*
X132207238Y-77069904D01*
X132359619Y-77069904D01*
X132435809Y-77031809D01*
X132473904Y-76955619D01*
X132473904Y-76917523D01*
X132435809Y-76841333D01*
X132359619Y-76803238D01*
X132245333Y-76803238D01*
X132169142Y-76765142D01*
X132131047Y-76688952D01*
X132131047Y-76650857D01*
X132169142Y-76574666D01*
X132245333Y-76536571D01*
X132359619Y-76536571D01*
X132435809Y-76574666D01*
X133159619Y-76536571D02*
X133159619Y-77069904D01*
X132816761Y-76536571D02*
X132816761Y-76955619D01*
X132854857Y-77031809D01*
X132931047Y-77069904D01*
X133045333Y-77069904D01*
X133121523Y-77031809D01*
X133159619Y-76993714D01*
X133654857Y-77069904D02*
X133578666Y-77031809D01*
X133540571Y-76955619D01*
X133540571Y-76269904D01*
X133845333Y-76536571D02*
X134150095Y-76536571D01*
X133959619Y-77069904D02*
X133959619Y-76384190D01*
X133997714Y-76308000D01*
X134073904Y-76269904D01*
X134150095Y-76269904D01*
X134759619Y-76536571D02*
X134759619Y-77069904D01*
X134416761Y-76536571D02*
X134416761Y-76955619D01*
X134454857Y-77031809D01*
X134531047Y-77069904D01*
X134645333Y-77069904D01*
X134721523Y-77031809D01*
X134759619Y-76993714D01*
X135140571Y-77069904D02*
X135140571Y-76536571D01*
X135140571Y-76688952D02*
X135178666Y-76612761D01*
X135216761Y-76574666D01*
X135292952Y-76536571D01*
X135369142Y-76536571D01*
X135750095Y-77069904D02*
X135673904Y-77031809D01*
X135635809Y-76993714D01*
X135597714Y-76917523D01*
X135597714Y-76688952D01*
X135635809Y-76612761D01*
X135673904Y-76574666D01*
X135750095Y-76536571D01*
X135864380Y-76536571D01*
X135940571Y-76574666D01*
X135978666Y-76612761D01*
X136016761Y-76688952D01*
X136016761Y-76917523D01*
X135978666Y-76993714D01*
X135940571Y-77031809D01*
X135864380Y-77069904D01*
X135750095Y-77069904D01*
X136359619Y-77069904D02*
X136359619Y-76536571D01*
X136359619Y-76269904D02*
X136321523Y-76308000D01*
X136359619Y-76346095D01*
X136397714Y-76308000D01*
X136359619Y-76269904D01*
X136359619Y-76346095D01*
X137083428Y-77069904D02*
X137083428Y-76269904D01*
X137083428Y-77031809D02*
X137007238Y-77069904D01*
X136854857Y-77069904D01*
X136778666Y-77031809D01*
X136740571Y-76993714D01*
X136702476Y-76917523D01*
X136702476Y-76688952D01*
X136740571Y-76612761D01*
X136778666Y-76574666D01*
X136854857Y-76536571D01*
X137007238Y-76536571D01*
X137083428Y-76574666D01*
D11*
X125953333Y-104814666D02*
X126429523Y-104814666D01*
X125858095Y-105100380D02*
X126191428Y-104100380D01*
X126524761Y-105100380D01*
X126858095Y-105100380D02*
X126858095Y-104433714D01*
X126858095Y-104100380D02*
X126810476Y-104148000D01*
X126858095Y-104195619D01*
X126905714Y-104148000D01*
X126858095Y-104100380D01*
X126858095Y-104195619D01*
X127334285Y-104719428D02*
X128096190Y-104719428D01*
X128429523Y-104100380D02*
X129000952Y-104100380D01*
X128715238Y-105100380D02*
X128715238Y-104100380D01*
X129334285Y-105100380D02*
X129334285Y-104100380D01*
X129762857Y-105100380D02*
X129762857Y-104576571D01*
X129715238Y-104481333D01*
X129619999Y-104433714D01*
X129477142Y-104433714D01*
X129381904Y-104481333D01*
X129334285Y-104528952D01*
X130239047Y-105100380D02*
X130239047Y-104433714D01*
X130239047Y-104100380D02*
X130191428Y-104148000D01*
X130239047Y-104195619D01*
X130286666Y-104148000D01*
X130239047Y-104100380D01*
X130239047Y-104195619D01*
X130715238Y-104433714D02*
X130715238Y-105100380D01*
X130715238Y-104528952D02*
X130762857Y-104481333D01*
X130858095Y-104433714D01*
X131000952Y-104433714D01*
X131096190Y-104481333D01*
X131143809Y-104576571D01*
X131143809Y-105100380D01*
X131619999Y-105100380D02*
X131619999Y-104100380D01*
X131715238Y-104719428D02*
X132000952Y-105100380D01*
X132000952Y-104433714D02*
X131619999Y-104814666D01*
X132810476Y-105052761D02*
X132715238Y-105100380D01*
X132524761Y-105100380D01*
X132429523Y-105052761D01*
X132381904Y-104957523D01*
X132381904Y-104576571D01*
X132429523Y-104481333D01*
X132524761Y-104433714D01*
X132715238Y-104433714D01*
X132810476Y-104481333D01*
X132858095Y-104576571D01*
X132858095Y-104671809D01*
X132381904Y-104767047D01*
X133286666Y-105100380D02*
X133286666Y-104433714D01*
X133286666Y-104624190D02*
X133334285Y-104528952D01*
X133381904Y-104481333D01*
X133477142Y-104433714D01*
X133572380Y-104433714D01*
X134524761Y-104100380D02*
X134858095Y-105100380D01*
X135191428Y-104100380D01*
X135667619Y-105100380D02*
X135572380Y-105052761D01*
X135524761Y-105005142D01*
X135477142Y-104909904D01*
X135477142Y-104624190D01*
X135524761Y-104528952D01*
X135572380Y-104481333D01*
X135667619Y-104433714D01*
X135810476Y-104433714D01*
X135905714Y-104481333D01*
X135953333Y-104528952D01*
X136000952Y-104624190D01*
X136000952Y-104909904D01*
X135953333Y-105005142D01*
X135905714Y-105052761D01*
X135810476Y-105100380D01*
X135667619Y-105100380D01*
X136429523Y-105100380D02*
X136429523Y-104433714D01*
X136429523Y-104100380D02*
X136381904Y-104148000D01*
X136429523Y-104195619D01*
X136477142Y-104148000D01*
X136429523Y-104100380D01*
X136429523Y-104195619D01*
X137334285Y-105052761D02*
X137239047Y-105100380D01*
X137048571Y-105100380D01*
X136953333Y-105052761D01*
X136905714Y-105005142D01*
X136858095Y-104909904D01*
X136858095Y-104624190D01*
X136905714Y-104528952D01*
X136953333Y-104481333D01*
X137048571Y-104433714D01*
X137239047Y-104433714D01*
X137334285Y-104481333D01*
X138143809Y-105052761D02*
X138048571Y-105100380D01*
X137858095Y-105100380D01*
X137762857Y-105052761D01*
X137715238Y-104957523D01*
X137715238Y-104576571D01*
X137762857Y-104481333D01*
X137858095Y-104433714D01*
X138048571Y-104433714D01*
X138143809Y-104481333D01*
X138191428Y-104576571D01*
X138191428Y-104671809D01*
X137715238Y-104767047D01*
X139715238Y-104576571D02*
X139858095Y-104624190D01*
X139905714Y-104671809D01*
X139953333Y-104767047D01*
X139953333Y-104909904D01*
X139905714Y-105005142D01*
X139858095Y-105052761D01*
X139762857Y-105100380D01*
X139381904Y-105100380D01*
X139381904Y-104100380D01*
X139715238Y-104100380D01*
X139810476Y-104148000D01*
X139858095Y-104195619D01*
X139905714Y-104290857D01*
X139905714Y-104386095D01*
X139858095Y-104481333D01*
X139810476Y-104528952D01*
X139715238Y-104576571D01*
X139381904Y-104576571D01*
X140524761Y-105100380D02*
X140429523Y-105052761D01*
X140381904Y-105005142D01*
X140334285Y-104909904D01*
X140334285Y-104624190D01*
X140381904Y-104528952D01*
X140429523Y-104481333D01*
X140524761Y-104433714D01*
X140667619Y-104433714D01*
X140762857Y-104481333D01*
X140810476Y-104528952D01*
X140858095Y-104624190D01*
X140858095Y-104909904D01*
X140810476Y-105005142D01*
X140762857Y-105052761D01*
X140667619Y-105100380D01*
X140524761Y-105100380D01*
X141715238Y-105100380D02*
X141715238Y-104576571D01*
X141667619Y-104481333D01*
X141572380Y-104433714D01*
X141381904Y-104433714D01*
X141286666Y-104481333D01*
X141715238Y-105052761D02*
X141620000Y-105100380D01*
X141381904Y-105100380D01*
X141286666Y-105052761D01*
X141239047Y-104957523D01*
X141239047Y-104862285D01*
X141286666Y-104767047D01*
X141381904Y-104719428D01*
X141620000Y-104719428D01*
X141715238Y-104671809D01*
X142191428Y-105100380D02*
X142191428Y-104433714D01*
X142191428Y-104624190D02*
X142239047Y-104528952D01*
X142286666Y-104481333D01*
X142381904Y-104433714D01*
X142477142Y-104433714D01*
X143239047Y-105100380D02*
X143239047Y-104100380D01*
X143239047Y-105052761D02*
X143143809Y-105100380D01*
X142953333Y-105100380D01*
X142858095Y-105052761D01*
X142810476Y-105005142D01*
X142762857Y-104909904D01*
X142762857Y-104624190D01*
X142810476Y-104528952D01*
X142858095Y-104481333D01*
X142953333Y-104433714D01*
X143143809Y-104433714D01*
X143239047Y-104481333D01*
D12*
%TO.C,J2*%
X148530000Y-75425001D02*
X149860000Y-75425001D01*
X148530000Y-76755001D02*
X148530000Y-75425001D01*
X148530000Y-78025001D02*
X151190000Y-78025001D01*
X151190000Y-78025001D02*
X151190000Y-106025001D01*
X148530000Y-78025001D02*
X148530000Y-106025001D01*
X148530000Y-106025001D02*
X151190000Y-106025001D01*
%TO.C,J1*%
X118050000Y-106025001D02*
X120710000Y-106025001D01*
X118050000Y-78025001D02*
X118050000Y-106025001D01*
X120710000Y-78025001D02*
X120710000Y-106025001D01*
X118050000Y-78025001D02*
X120710000Y-78025001D01*
X118050000Y-76755001D02*
X118050000Y-75425001D01*
X118050000Y-75425001D02*
X119380000Y-75425001D01*
D13*
%TO.C,U1*%
X146620000Y-82670000D02*
X146620000Y-81667016D01*
X146620000Y-88670000D02*
X146620000Y-87667016D01*
X146620000Y-90669999D02*
X146620000Y-89667016D01*
X146620000Y-100669999D02*
X146620000Y-99667015D01*
X146620000Y-100573817D02*
X146620000Y-100669999D01*
X146620000Y-98669999D02*
X146620000Y-97667015D01*
X146620000Y-96669999D02*
X146620000Y-95667015D01*
X146620000Y-80670000D02*
X146620000Y-79667016D01*
X122620000Y-78670000D02*
X122620000Y-78573818D01*
X122620000Y-78573818D02*
X123623663Y-78573818D01*
X122620000Y-77675163D02*
X122620000Y-78670000D01*
X122620000Y-103175163D02*
X122620000Y-101667015D01*
X122620000Y-103175163D02*
X146620000Y-103175163D01*
X122620000Y-77675163D02*
X146620000Y-77675163D01*
X146620000Y-103175163D02*
X146620000Y-101667015D01*
X123623663Y-78573818D02*
X123623663Y-79771237D01*
X145616337Y-98573817D02*
X146620000Y-98573817D01*
X146620000Y-98573817D02*
X146620000Y-98669999D01*
X145616337Y-99771236D02*
X145616337Y-98573817D01*
X146620000Y-101667015D02*
X146620000Y-101771236D01*
X146620000Y-101771236D02*
X145616337Y-101771236D01*
X145616337Y-100573817D02*
X146620000Y-100573817D01*
X145616337Y-101771236D02*
X145616337Y-100573817D01*
X122620000Y-79771237D02*
X123623663Y-79771237D01*
X122620000Y-78573818D02*
X122620000Y-78670000D01*
X123623663Y-80573818D02*
X122620000Y-80573818D01*
X122620000Y-81771237D02*
X123623663Y-81771237D01*
X123623663Y-81771237D02*
X123623663Y-80573818D01*
X123623663Y-82573818D02*
X122620000Y-82573818D01*
X122620000Y-78573818D02*
X122620000Y-78670000D01*
X123623663Y-78573818D02*
X122620000Y-78573818D01*
X122620000Y-83771237D02*
X123623663Y-83771237D01*
X123623663Y-83771237D02*
X123623663Y-82573818D01*
X122620000Y-84573818D02*
X122620000Y-84670000D01*
X122620000Y-85771237D02*
X123623663Y-85771237D01*
X123623663Y-86573818D02*
X122620000Y-86573818D01*
X122620000Y-87667016D02*
X122620000Y-87771237D01*
X122620000Y-87771237D02*
X123623663Y-87771237D01*
X123623663Y-87771237D02*
X123623663Y-86573818D01*
X123623663Y-88573818D02*
X122620000Y-88573818D01*
X122620000Y-88573818D02*
X122620000Y-88670000D01*
X123623663Y-90573817D02*
X122620000Y-90573817D01*
X123623663Y-79771237D02*
X122620000Y-79771237D01*
X122620000Y-82573818D02*
X122620000Y-82670000D01*
X122620000Y-79771237D02*
X122620000Y-79667016D01*
X122620000Y-83667016D02*
X122620000Y-83771237D01*
X122620000Y-85667016D02*
X122620000Y-85771237D01*
X122620000Y-89771237D02*
X123623663Y-89771237D01*
X122620000Y-90573817D02*
X122620000Y-90669999D01*
X122620000Y-89667016D02*
X122620000Y-89771237D01*
X122620000Y-91667015D02*
X122620000Y-91771236D01*
X123623663Y-85771237D02*
X123623663Y-84573818D01*
X123623663Y-89771237D02*
X123623663Y-88573818D01*
X123623663Y-84573818D02*
X122620000Y-84573818D01*
X122620000Y-81667016D02*
X122620000Y-81771237D01*
X122620000Y-86573818D02*
X122620000Y-86670000D01*
X122620000Y-79667016D02*
X122620000Y-79771237D01*
X122620000Y-80573818D02*
X122620000Y-80670000D01*
X123623663Y-79771237D02*
X123623663Y-78573818D01*
X122620000Y-91771236D02*
X123623663Y-91771236D01*
X123623663Y-92573817D02*
X122620000Y-92573817D01*
X122620000Y-93667015D02*
X122620000Y-93771236D01*
X122620000Y-92573817D02*
X122620000Y-92669999D01*
X122620000Y-93771236D02*
X123623663Y-93771236D01*
X123623663Y-93771236D02*
X123623663Y-92573817D01*
X123623663Y-94573817D02*
X122620000Y-94573817D01*
X122620000Y-94573817D02*
X122620000Y-94669999D01*
X122620000Y-95771236D02*
X123623663Y-95771236D01*
X123623663Y-95771236D02*
X123623663Y-94573817D01*
X123623663Y-91771236D02*
X123623663Y-90573817D01*
X122620000Y-95667015D02*
X122620000Y-95771236D01*
X123623663Y-96573817D02*
X122620000Y-96573817D01*
X122620000Y-97667015D02*
X122620000Y-97771236D01*
X122620000Y-97771236D02*
X123623663Y-97771236D01*
X123623663Y-100573817D02*
X122620000Y-100573817D01*
X122620000Y-101667015D02*
X122620000Y-101771236D01*
X122620000Y-101771236D02*
X123623663Y-101771236D01*
X122620000Y-100573817D02*
X122620000Y-100669999D01*
X122620000Y-98573817D02*
X122620000Y-98669999D01*
X122620000Y-96573817D02*
X122620000Y-96669999D01*
X123623663Y-97771236D02*
X123623663Y-96573817D01*
X123623663Y-98573817D02*
X122620000Y-98573817D01*
X122620000Y-99667015D02*
X122620000Y-99771236D01*
X122620000Y-99771236D02*
X123623663Y-99771236D01*
X123623663Y-99771236D02*
X123623663Y-98573817D01*
X122620000Y-80670000D02*
X122620000Y-79667016D01*
X122620000Y-82670000D02*
X122620000Y-81667016D01*
X122620000Y-84670000D02*
X122620000Y-83667016D01*
X123623663Y-101771236D02*
X123623663Y-100573817D01*
X122620000Y-78670000D02*
X122620000Y-77675163D01*
X122620000Y-86670000D02*
X122620000Y-85667016D01*
X122620000Y-100669999D02*
X122620000Y-99667015D01*
X145616337Y-83771237D02*
X145616337Y-82573818D01*
X145616337Y-82573818D02*
X146620000Y-82573818D01*
X122620000Y-92669999D02*
X122620000Y-91667015D01*
X146620000Y-83667016D02*
X146620000Y-83771237D01*
X146620000Y-82573818D02*
X146620000Y-82670000D01*
X146620000Y-78573818D02*
X146620000Y-78670000D01*
X145616337Y-78573818D02*
X146620000Y-78573818D01*
X146620000Y-79771237D02*
X145616337Y-79771237D01*
X146620000Y-79667016D02*
X146620000Y-79771237D01*
X122620000Y-94669999D02*
X122620000Y-93667015D01*
X122620000Y-96669999D02*
X122620000Y-95667015D01*
X122620000Y-88670000D02*
X122620000Y-87667016D01*
X122620000Y-90669999D02*
X122620000Y-89667016D01*
X122620000Y-98669999D02*
X122620000Y-97667015D01*
X146620000Y-78670000D02*
X146620000Y-77675163D01*
X146620000Y-81667016D02*
X146620000Y-81771237D01*
X145616337Y-79771237D02*
X145616337Y-78573818D01*
X146620000Y-81771237D02*
X145616337Y-81771237D01*
X145616337Y-80573818D02*
X146620000Y-80573818D01*
X146620000Y-80573818D02*
X146620000Y-80670000D01*
X145616337Y-81771237D02*
X145616337Y-80573818D01*
X146620000Y-83771237D02*
X145616337Y-83771237D01*
X146620000Y-85667016D02*
X146620000Y-85771237D01*
X146620000Y-85771237D02*
X145616337Y-85771237D01*
X145616337Y-84573818D02*
X146620000Y-84573818D01*
X146620000Y-84573818D02*
X146620000Y-84670000D01*
X146620000Y-87667016D02*
X146620000Y-87771237D01*
X146620000Y-87771237D02*
X145616337Y-87771237D01*
X145616337Y-87771237D02*
X145616337Y-86573818D01*
X145616337Y-85771237D02*
X145616337Y-84573818D01*
X145616337Y-86573818D02*
X146620000Y-86573818D01*
X145616337Y-88573818D02*
X146620000Y-88573818D01*
X146620000Y-91667015D02*
X146620000Y-91771236D01*
X146620000Y-91771236D02*
X145616337Y-91771236D01*
X145616337Y-92573817D02*
X146620000Y-92573817D01*
X146620000Y-89667016D02*
X146620000Y-89771237D01*
X146620000Y-88573818D02*
X146620000Y-88670000D01*
X146620000Y-93667015D02*
X146620000Y-93771236D01*
X145616337Y-89771237D02*
X145616337Y-88573818D01*
X146620000Y-93771236D02*
X145616337Y-93771236D01*
X145616337Y-93771236D02*
X145616337Y-92573817D01*
X146620000Y-92573817D02*
X146620000Y-92669999D01*
X146620000Y-95771236D02*
X145616337Y-95771236D01*
X145616337Y-95771236D02*
X145616337Y-94573817D01*
X146620000Y-86573818D02*
X146620000Y-86670000D01*
X145616337Y-91771236D02*
X145616337Y-90573817D01*
X146620000Y-90573817D02*
X146620000Y-90669999D01*
X146620000Y-95667015D02*
X146620000Y-95771236D01*
X146620000Y-89771237D02*
X145616337Y-89771237D01*
X145616337Y-94573817D02*
X146620000Y-94573817D01*
X145616337Y-90573817D02*
X146620000Y-90573817D01*
X146620000Y-94573817D02*
X146620000Y-94669999D01*
X146620000Y-99667015D02*
X146620000Y-99771236D01*
X146620000Y-99771236D02*
X145616337Y-99771236D01*
X146620000Y-97667015D02*
X146620000Y-97771236D01*
X146620000Y-96573817D02*
X146620000Y-96669999D01*
X146620000Y-97771236D02*
X145616337Y-97771236D01*
X145616337Y-97771236D02*
X145616337Y-96573817D01*
X145616337Y-96573817D02*
X146620000Y-96573817D01*
D11*
X146620000Y-83771237D02*
X146620000Y-84573818D01*
X146620000Y-85771237D02*
X146620000Y-86573818D01*
X146620000Y-91771236D02*
X146620000Y-92573817D01*
X146620000Y-93771236D02*
X146620000Y-94573817D01*
X127620000Y-78670000D02*
G75*
G03*
X127620000Y-78670000I-500000J0D01*
G01*
D13*
X146620000Y-99667015D02*
G75*
G02*
X146620000Y-98669999I265497J498508D01*
G01*
X146620000Y-97667015D02*
G75*
G02*
X146620000Y-96669999I265497J498508D01*
G01*
X146620000Y-95667015D02*
G75*
G02*
X146620000Y-94669999I265497J498508D01*
G01*
X146620000Y-93667015D02*
G75*
G02*
X146620000Y-92669999I265497J498508D01*
G01*
X122620000Y-100669999D02*
G75*
G02*
X122620000Y-101667015I-265497J-498508D01*
G01*
X146620000Y-79667016D02*
G75*
G02*
X146620000Y-78670000I265497J498508D01*
G01*
X146620000Y-83667016D02*
G75*
G02*
X146620000Y-82670000I265497J498508D01*
G01*
X146620000Y-81667016D02*
G75*
G02*
X146620000Y-80670000I265497J498508D01*
G01*
X146620000Y-91667015D02*
G75*
G02*
X146620000Y-90669999I265497J498508D01*
G01*
X146620000Y-85667016D02*
G75*
G02*
X146620000Y-84670000I265497J498508D01*
G01*
X146620000Y-89667016D02*
G75*
G02*
X146620000Y-88670000I265497J498508D01*
G01*
X146620000Y-87667016D02*
G75*
G02*
X146620000Y-86670000I265497J498508D01*
G01*
X122620000Y-96669999D02*
G75*
G02*
X122620000Y-97667015I-265497J-498508D01*
G01*
X122620000Y-94669999D02*
G75*
G02*
X122620000Y-95667015I-265497J-498508D01*
G01*
X122620000Y-78670000D02*
G75*
G02*
X122620000Y-79667016I-265497J-498508D01*
G01*
X122620000Y-88670000D02*
G75*
G02*
X122620000Y-89667016I-265497J-498508D01*
G01*
X122620000Y-84670000D02*
G75*
G02*
X122620000Y-85667016I-265497J-498508D01*
G01*
X122620000Y-80670000D02*
G75*
G02*
X122620000Y-81667016I-265497J-498508D01*
G01*
X122620000Y-92669999D02*
G75*
G02*
X122620000Y-93667015I-265497J-498508D01*
G01*
X122620000Y-86670000D02*
G75*
G02*
X122620000Y-87667016I-265497J-498508D01*
G01*
X122620000Y-98669999D02*
G75*
G02*
X122620000Y-99667015I-265497J-498508D01*
G01*
X122620000Y-82670000D02*
G75*
G02*
X122620000Y-83667016I-265497J-498508D01*
G01*
X122620000Y-90669999D02*
G75*
G02*
X122620000Y-91667015I-265497J-498508D01*
G01*
X146620000Y-101667015D02*
G75*
G02*
X146620000Y-100669999I265497J498508D01*
G01*
D11*
X133858095Y-90122380D02*
X133858095Y-90931904D01*
X133905714Y-91027142D01*
X133953333Y-91074761D01*
X134048571Y-91122380D01*
X134239047Y-91122380D01*
X134334285Y-91074761D01*
X134381904Y-91027142D01*
X134429523Y-90931904D01*
X134429523Y-90122380D01*
X135429523Y-91122380D02*
X134858095Y-91122380D01*
X135143809Y-91122380D02*
X135143809Y-90122380D01*
X135048571Y-90265238D01*
X134953333Y-90360476D01*
X134858095Y-90408095D01*
X132215238Y-82122380D02*
X132548571Y-83122380D01*
X132881904Y-82122380D01*
X133786666Y-83027142D02*
X133739047Y-83074761D01*
X133596190Y-83122380D01*
X133500952Y-83122380D01*
X133358095Y-83074761D01*
X133262857Y-82979523D01*
X133215238Y-82884285D01*
X133167619Y-82693809D01*
X133167619Y-82550952D01*
X133215238Y-82360476D01*
X133262857Y-82265238D01*
X133358095Y-82170000D01*
X133500952Y-82122380D01*
X133596190Y-82122380D01*
X133739047Y-82170000D01*
X133786666Y-82217619D01*
X134215238Y-82741428D02*
X134977142Y-82741428D01*
X135643809Y-82122380D02*
X135739047Y-82122380D01*
X135834285Y-82170000D01*
X135881904Y-82217619D01*
X135929523Y-82312857D01*
X135977142Y-82503333D01*
X135977142Y-82741428D01*
X135929523Y-82931904D01*
X135881904Y-83027142D01*
X135834285Y-83074761D01*
X135739047Y-83122380D01*
X135643809Y-83122380D01*
X135548571Y-83074761D01*
X135500952Y-83027142D01*
X135453333Y-82931904D01*
X135405714Y-82741428D01*
X135405714Y-82503333D01*
X135453333Y-82312857D01*
X135500952Y-82217619D01*
X135548571Y-82170000D01*
X135643809Y-82122380D01*
X136929523Y-83122380D02*
X136358095Y-83122380D01*
X136643809Y-83122380D02*
X136643809Y-82122380D01*
X136548571Y-82265238D01*
X136453333Y-82360476D01*
X136358095Y-82408095D01*
D14*
X141977142Y-79412857D02*
X142062857Y-79441428D01*
X142205714Y-79441428D01*
X142262857Y-79412857D01*
X142291428Y-79384285D01*
X142320000Y-79327142D01*
X142320000Y-79270000D01*
X142291428Y-79212857D01*
X142262857Y-79184285D01*
X142205714Y-79155714D01*
X142091428Y-79127142D01*
X142034285Y-79098571D01*
X142005714Y-79070000D01*
X141977142Y-79012857D01*
X141977142Y-78955714D01*
X142005714Y-78898571D01*
X142034285Y-78870000D01*
X142091428Y-78841428D01*
X142234285Y-78841428D01*
X142320000Y-78870000D01*
X142577142Y-79441428D02*
X142577142Y-78841428D01*
X142805714Y-78841428D01*
X142862857Y-78870000D01*
X142891428Y-78898571D01*
X142920000Y-78955714D01*
X142920000Y-79041428D01*
X142891428Y-79098571D01*
X142862857Y-79127142D01*
X142805714Y-79155714D01*
X142577142Y-79155714D01*
X143177142Y-79441428D02*
X143177142Y-78841428D01*
X143520000Y-79441428D02*
X143262857Y-79098571D01*
X143520000Y-78841428D02*
X143177142Y-79184285D01*
X143777142Y-79212857D02*
X144234285Y-79212857D01*
X144005714Y-79441428D02*
X144005714Y-78984285D01*
X141977142Y-81412857D02*
X142062857Y-81441428D01*
X142205714Y-81441428D01*
X142262857Y-81412857D01*
X142291428Y-81384285D01*
X142320000Y-81327142D01*
X142320000Y-81270000D01*
X142291428Y-81212857D01*
X142262857Y-81184285D01*
X142205714Y-81155714D01*
X142091428Y-81127142D01*
X142034285Y-81098571D01*
X142005714Y-81070000D01*
X141977142Y-81012857D01*
X141977142Y-80955714D01*
X142005714Y-80898571D01*
X142034285Y-80870000D01*
X142091428Y-80841428D01*
X142234285Y-80841428D01*
X142320000Y-80870000D01*
X142577142Y-81441428D02*
X142577142Y-80841428D01*
X142805714Y-80841428D01*
X142862857Y-80870000D01*
X142891428Y-80898571D01*
X142920000Y-80955714D01*
X142920000Y-81041428D01*
X142891428Y-81098571D01*
X142862857Y-81127142D01*
X142805714Y-81155714D01*
X142577142Y-81155714D01*
X143177142Y-81441428D02*
X143177142Y-80841428D01*
X143520000Y-81441428D02*
X143262857Y-81098571D01*
X143520000Y-80841428D02*
X143177142Y-81184285D01*
X143777142Y-81212857D02*
X144234285Y-81212857D01*
X142105714Y-83441428D02*
X142105714Y-82841428D01*
X142248571Y-82841428D01*
X142334285Y-82870000D01*
X142391428Y-82927142D01*
X142420000Y-82984285D01*
X142448571Y-83098571D01*
X142448571Y-83184285D01*
X142420000Y-83298571D01*
X142391428Y-83355714D01*
X142334285Y-83412857D01*
X142248571Y-83441428D01*
X142105714Y-83441428D01*
X142677142Y-83270000D02*
X142962857Y-83270000D01*
X142620000Y-83441428D02*
X142820000Y-82841428D01*
X143020000Y-83441428D01*
X143562857Y-83384285D02*
X143534285Y-83412857D01*
X143448571Y-83441428D01*
X143391428Y-83441428D01*
X143305714Y-83412857D01*
X143248571Y-83355714D01*
X143220000Y-83298571D01*
X143191428Y-83184285D01*
X143191428Y-83098571D01*
X143220000Y-82984285D01*
X143248571Y-82927142D01*
X143305714Y-82870000D01*
X143391428Y-82841428D01*
X143448571Y-82841428D01*
X143534285Y-82870000D01*
X143562857Y-82898571D01*
X144162857Y-83441428D02*
X143962857Y-83155714D01*
X143820000Y-83441428D02*
X143820000Y-82841428D01*
X144048571Y-82841428D01*
X144105714Y-82870000D01*
X144134285Y-82898571D01*
X144162857Y-82955714D01*
X144162857Y-83041428D01*
X144134285Y-83098571D01*
X144105714Y-83127142D01*
X144048571Y-83155714D01*
X143820000Y-83155714D01*
X142162857Y-85441428D02*
X142162857Y-84841428D01*
X142305714Y-84841428D01*
X142391428Y-84870000D01*
X142448571Y-84927142D01*
X142477142Y-84984285D01*
X142505714Y-85098571D01*
X142505714Y-85184285D01*
X142477142Y-85298571D01*
X142448571Y-85355714D01*
X142391428Y-85412857D01*
X142305714Y-85441428D01*
X142162857Y-85441428D01*
X142734285Y-85270000D02*
X143020000Y-85270000D01*
X142677142Y-85441428D02*
X142877142Y-84841428D01*
X143077142Y-85441428D01*
X143620000Y-85384285D02*
X143591428Y-85412857D01*
X143505714Y-85441428D01*
X143448571Y-85441428D01*
X143362857Y-85412857D01*
X143305714Y-85355714D01*
X143277142Y-85298571D01*
X143248571Y-85184285D01*
X143248571Y-85098571D01*
X143277142Y-84984285D01*
X143305714Y-84927142D01*
X143362857Y-84870000D01*
X143448571Y-84841428D01*
X143505714Y-84841428D01*
X143591428Y-84870000D01*
X143620000Y-84898571D01*
X144162857Y-85441428D02*
X143877142Y-85441428D01*
X143877142Y-84841428D01*
X141977142Y-87441428D02*
X141977142Y-86841428D01*
X142377142Y-86841428D02*
X142491428Y-86841428D01*
X142548571Y-86870000D01*
X142605714Y-86927142D01*
X142634285Y-87041428D01*
X142634285Y-87241428D01*
X142605714Y-87355714D01*
X142548571Y-87412857D01*
X142491428Y-87441428D01*
X142377142Y-87441428D01*
X142320000Y-87412857D01*
X142262857Y-87355714D01*
X142234285Y-87241428D01*
X142234285Y-87041428D01*
X142262857Y-86927142D01*
X142320000Y-86870000D01*
X142377142Y-86841428D01*
X142862857Y-87270000D02*
X143148571Y-87270000D01*
X142805714Y-87441428D02*
X143005714Y-86841428D01*
X143205714Y-87441428D01*
X143377142Y-86898571D02*
X143405714Y-86870000D01*
X143462857Y-86841428D01*
X143605714Y-86841428D01*
X143662857Y-86870000D01*
X143691428Y-86898571D01*
X143720000Y-86955714D01*
X143720000Y-87012857D01*
X143691428Y-87098571D01*
X143348571Y-87441428D01*
X143720000Y-87441428D01*
X144234285Y-86841428D02*
X144120000Y-86841428D01*
X144062857Y-86870000D01*
X144034285Y-86898571D01*
X143977142Y-86984285D01*
X143948571Y-87098571D01*
X143948571Y-87327142D01*
X143977142Y-87384285D01*
X144005714Y-87412857D01*
X144062857Y-87441428D01*
X144177142Y-87441428D01*
X144234285Y-87412857D01*
X144262857Y-87384285D01*
X144291428Y-87327142D01*
X144291428Y-87184285D01*
X144262857Y-87127142D01*
X144234285Y-87098571D01*
X144177142Y-87070000D01*
X144062857Y-87070000D01*
X144005714Y-87098571D01*
X143977142Y-87127142D01*
X143948571Y-87184285D01*
X142105714Y-89441428D02*
X142105714Y-88841428D01*
X142305714Y-89270000D01*
X142505714Y-88841428D01*
X142505714Y-89441428D01*
X142791428Y-89441428D02*
X142791428Y-88841428D01*
X143420000Y-89384285D02*
X143391428Y-89412857D01*
X143305714Y-89441428D01*
X143248571Y-89441428D01*
X143162857Y-89412857D01*
X143105714Y-89355714D01*
X143077142Y-89298571D01*
X143048571Y-89184285D01*
X143048571Y-89098571D01*
X143077142Y-88984285D01*
X143105714Y-88927142D01*
X143162857Y-88870000D01*
X143248571Y-88841428D01*
X143305714Y-88841428D01*
X143391428Y-88870000D01*
X143420000Y-88898571D01*
X143677142Y-89212857D02*
X144134285Y-89212857D01*
X143905714Y-89441428D02*
X143905714Y-88984285D01*
X142105714Y-91441428D02*
X142105714Y-90841428D01*
X142305714Y-91270000D01*
X142505714Y-90841428D01*
X142505714Y-91441428D01*
X142791428Y-91441428D02*
X142791428Y-90841428D01*
X143420000Y-91384285D02*
X143391428Y-91412857D01*
X143305714Y-91441428D01*
X143248571Y-91441428D01*
X143162857Y-91412857D01*
X143105714Y-91355714D01*
X143077142Y-91298571D01*
X143048571Y-91184285D01*
X143048571Y-91098571D01*
X143077142Y-90984285D01*
X143105714Y-90927142D01*
X143162857Y-90870000D01*
X143248571Y-90841428D01*
X143305714Y-90841428D01*
X143391428Y-90870000D01*
X143420000Y-90898571D01*
X143677142Y-91212857D02*
X144134285Y-91212857D01*
X142648571Y-93441428D02*
X142648571Y-92841428D01*
X142991428Y-93441428D01*
X142991428Y-92841428D01*
X143620000Y-93384285D02*
X143591428Y-93412857D01*
X143505714Y-93441428D01*
X143448571Y-93441428D01*
X143362857Y-93412857D01*
X143305714Y-93355714D01*
X143277142Y-93298571D01*
X143248571Y-93184285D01*
X143248571Y-93098571D01*
X143277142Y-92984285D01*
X143305714Y-92927142D01*
X143362857Y-92870000D01*
X143448571Y-92841428D01*
X143505714Y-92841428D01*
X143591428Y-92870000D01*
X143620000Y-92898571D01*
X142220000Y-95441428D02*
X142220000Y-94841428D01*
X142620000Y-94841428D02*
X142734285Y-94841428D01*
X142791428Y-94870000D01*
X142848571Y-94927142D01*
X142877142Y-95041428D01*
X142877142Y-95241428D01*
X142848571Y-95355714D01*
X142791428Y-95412857D01*
X142734285Y-95441428D01*
X142620000Y-95441428D01*
X142562857Y-95412857D01*
X142505714Y-95355714D01*
X142477142Y-95241428D01*
X142477142Y-95041428D01*
X142505714Y-94927142D01*
X142562857Y-94870000D01*
X142620000Y-94841428D01*
X143334285Y-95127142D02*
X143420000Y-95155714D01*
X143448571Y-95184285D01*
X143477142Y-95241428D01*
X143477142Y-95327142D01*
X143448571Y-95384285D01*
X143420000Y-95412857D01*
X143362857Y-95441428D01*
X143134285Y-95441428D01*
X143134285Y-94841428D01*
X143334285Y-94841428D01*
X143391428Y-94870000D01*
X143420000Y-94898571D01*
X143448571Y-94955714D01*
X143448571Y-95012857D01*
X143420000Y-95070000D01*
X143391428Y-95098571D01*
X143334285Y-95127142D01*
X143134285Y-95127142D01*
X144048571Y-95441428D02*
X143705714Y-95441428D01*
X143877142Y-95441428D02*
X143877142Y-94841428D01*
X143820000Y-94927142D01*
X143762857Y-94984285D01*
X143705714Y-95012857D01*
X142220000Y-97441428D02*
X142220000Y-96841428D01*
X142620000Y-96841428D02*
X142734285Y-96841428D01*
X142791428Y-96870000D01*
X142848571Y-96927142D01*
X142877142Y-97041428D01*
X142877142Y-97241428D01*
X142848571Y-97355714D01*
X142791428Y-97412857D01*
X142734285Y-97441428D01*
X142620000Y-97441428D01*
X142562857Y-97412857D01*
X142505714Y-97355714D01*
X142477142Y-97241428D01*
X142477142Y-97041428D01*
X142505714Y-96927142D01*
X142562857Y-96870000D01*
X142620000Y-96841428D01*
X143334285Y-97127142D02*
X143420000Y-97155714D01*
X143448571Y-97184285D01*
X143477142Y-97241428D01*
X143477142Y-97327142D01*
X143448571Y-97384285D01*
X143420000Y-97412857D01*
X143362857Y-97441428D01*
X143134285Y-97441428D01*
X143134285Y-96841428D01*
X143334285Y-96841428D01*
X143391428Y-96870000D01*
X143420000Y-96898571D01*
X143448571Y-96955714D01*
X143448571Y-97012857D01*
X143420000Y-97070000D01*
X143391428Y-97098571D01*
X143334285Y-97127142D01*
X143134285Y-97127142D01*
X143848571Y-96841428D02*
X143905714Y-96841428D01*
X143962857Y-96870000D01*
X143991428Y-96898571D01*
X144020000Y-96955714D01*
X144048571Y-97070000D01*
X144048571Y-97212857D01*
X144020000Y-97327142D01*
X143991428Y-97384285D01*
X143962857Y-97412857D01*
X143905714Y-97441428D01*
X143848571Y-97441428D01*
X143791428Y-97412857D01*
X143762857Y-97384285D01*
X143734285Y-97327142D01*
X143705714Y-97212857D01*
X143705714Y-97070000D01*
X143734285Y-96955714D01*
X143762857Y-96898571D01*
X143791428Y-96870000D01*
X143848571Y-96841428D01*
X142648571Y-99441428D02*
X142648571Y-98841428D01*
X142991428Y-99441428D01*
X142991428Y-98841428D01*
X143620000Y-99384285D02*
X143591428Y-99412857D01*
X143505714Y-99441428D01*
X143448571Y-99441428D01*
X143362857Y-99412857D01*
X143305714Y-99355714D01*
X143277142Y-99298571D01*
X143248571Y-99184285D01*
X143248571Y-99098571D01*
X143277142Y-98984285D01*
X143305714Y-98927142D01*
X143362857Y-98870000D01*
X143448571Y-98841428D01*
X143505714Y-98841428D01*
X143591428Y-98870000D01*
X143620000Y-98898571D01*
X141977142Y-101441428D02*
X141977142Y-100841428D01*
X142377142Y-100841428D02*
X142491428Y-100841428D01*
X142548571Y-100870000D01*
X142605714Y-100927142D01*
X142634285Y-101041428D01*
X142634285Y-101241428D01*
X142605714Y-101355714D01*
X142548571Y-101412857D01*
X142491428Y-101441428D01*
X142377142Y-101441428D01*
X142320000Y-101412857D01*
X142262857Y-101355714D01*
X142234285Y-101241428D01*
X142234285Y-101041428D01*
X142262857Y-100927142D01*
X142320000Y-100870000D01*
X142377142Y-100841428D01*
X142862857Y-101270000D02*
X143148571Y-101270000D01*
X142805714Y-101441428D02*
X143005714Y-100841428D01*
X143205714Y-101441428D01*
X143377142Y-100898571D02*
X143405714Y-100870000D01*
X143462857Y-100841428D01*
X143605714Y-100841428D01*
X143662857Y-100870000D01*
X143691428Y-100898571D01*
X143720000Y-100955714D01*
X143720000Y-101012857D01*
X143691428Y-101098571D01*
X143348571Y-101441428D01*
X143720000Y-101441428D01*
X144262857Y-100841428D02*
X143977142Y-100841428D01*
X143948571Y-101127142D01*
X143977142Y-101098571D01*
X144034285Y-101070000D01*
X144177142Y-101070000D01*
X144234285Y-101098571D01*
X144262857Y-101127142D01*
X144291428Y-101184285D01*
X144291428Y-101327142D01*
X144262857Y-101384285D01*
X144234285Y-101412857D01*
X144177142Y-101441428D01*
X144034285Y-101441428D01*
X143977142Y-101412857D01*
X143948571Y-101384285D01*
X124877142Y-101412857D02*
X124962857Y-101441428D01*
X125105714Y-101441428D01*
X125162857Y-101412857D01*
X125191428Y-101384285D01*
X125220000Y-101327142D01*
X125220000Y-101270000D01*
X125191428Y-101212857D01*
X125162857Y-101184285D01*
X125105714Y-101155714D01*
X124991428Y-101127142D01*
X124934285Y-101098571D01*
X124905714Y-101070000D01*
X124877142Y-101012857D01*
X124877142Y-100955714D01*
X124905714Y-100898571D01*
X124934285Y-100870000D01*
X124991428Y-100841428D01*
X125134285Y-100841428D01*
X125220000Y-100870000D01*
X125477142Y-101441428D02*
X125477142Y-100841428D01*
X125620000Y-100841428D01*
X125705714Y-100870000D01*
X125762857Y-100927142D01*
X125791428Y-100984285D01*
X125820000Y-101098571D01*
X125820000Y-101184285D01*
X125791428Y-101298571D01*
X125762857Y-101355714D01*
X125705714Y-101412857D01*
X125620000Y-101441428D01*
X125477142Y-101441428D01*
X126048571Y-101270000D02*
X126334285Y-101270000D01*
X125991428Y-101441428D02*
X126191428Y-100841428D01*
X126391428Y-101441428D01*
X126448571Y-101498571D02*
X126905714Y-101498571D01*
X127334285Y-100841428D02*
X127048571Y-100841428D01*
X127020000Y-101127142D01*
X127048571Y-101098571D01*
X127105714Y-101070000D01*
X127248571Y-101070000D01*
X127305714Y-101098571D01*
X127334285Y-101127142D01*
X127362857Y-101184285D01*
X127362857Y-101327142D01*
X127334285Y-101384285D01*
X127305714Y-101412857D01*
X127248571Y-101441428D01*
X127105714Y-101441428D01*
X127048571Y-101412857D01*
X127020000Y-101384285D01*
X124891428Y-99412857D02*
X124977142Y-99441428D01*
X125120000Y-99441428D01*
X125177142Y-99412857D01*
X125205714Y-99384285D01*
X125234285Y-99327142D01*
X125234285Y-99270000D01*
X125205714Y-99212857D01*
X125177142Y-99184285D01*
X125120000Y-99155714D01*
X125005714Y-99127142D01*
X124948571Y-99098571D01*
X124920000Y-99070000D01*
X124891428Y-99012857D01*
X124891428Y-98955714D01*
X124920000Y-98898571D01*
X124948571Y-98870000D01*
X125005714Y-98841428D01*
X125148571Y-98841428D01*
X125234285Y-98870000D01*
X125834285Y-99384285D02*
X125805714Y-99412857D01*
X125720000Y-99441428D01*
X125662857Y-99441428D01*
X125577142Y-99412857D01*
X125520000Y-99355714D01*
X125491428Y-99298571D01*
X125462857Y-99184285D01*
X125462857Y-99098571D01*
X125491428Y-98984285D01*
X125520000Y-98927142D01*
X125577142Y-98870000D01*
X125662857Y-98841428D01*
X125720000Y-98841428D01*
X125805714Y-98870000D01*
X125834285Y-98898571D01*
X126377142Y-99441428D02*
X126091428Y-99441428D01*
X126091428Y-98841428D01*
X126434285Y-99498571D02*
X126891428Y-99498571D01*
X127320000Y-98841428D02*
X127034285Y-98841428D01*
X127005714Y-99127142D01*
X127034285Y-99098571D01*
X127091428Y-99070000D01*
X127234285Y-99070000D01*
X127291428Y-99098571D01*
X127320000Y-99127142D01*
X127348571Y-99184285D01*
X127348571Y-99327142D01*
X127320000Y-99384285D01*
X127291428Y-99412857D01*
X127234285Y-99441428D01*
X127091428Y-99441428D01*
X127034285Y-99412857D01*
X127005714Y-99384285D01*
X124877142Y-97412857D02*
X124962857Y-97441428D01*
X125105714Y-97441428D01*
X125162857Y-97412857D01*
X125191428Y-97384285D01*
X125220000Y-97327142D01*
X125220000Y-97270000D01*
X125191428Y-97212857D01*
X125162857Y-97184285D01*
X125105714Y-97155714D01*
X124991428Y-97127142D01*
X124934285Y-97098571D01*
X124905714Y-97070000D01*
X124877142Y-97012857D01*
X124877142Y-96955714D01*
X124905714Y-96898571D01*
X124934285Y-96870000D01*
X124991428Y-96841428D01*
X125134285Y-96841428D01*
X125220000Y-96870000D01*
X125477142Y-97441428D02*
X125477142Y-96841428D01*
X125620000Y-96841428D01*
X125705714Y-96870000D01*
X125762857Y-96927142D01*
X125791428Y-96984285D01*
X125820000Y-97098571D01*
X125820000Y-97184285D01*
X125791428Y-97298571D01*
X125762857Y-97355714D01*
X125705714Y-97412857D01*
X125620000Y-97441428D01*
X125477142Y-97441428D01*
X126048571Y-97270000D02*
X126334285Y-97270000D01*
X125991428Y-97441428D02*
X126191428Y-96841428D01*
X126391428Y-97441428D01*
X126448571Y-97498571D02*
X126905714Y-97498571D01*
X126991428Y-96841428D02*
X127362857Y-96841428D01*
X127162857Y-97070000D01*
X127248571Y-97070000D01*
X127305714Y-97098571D01*
X127334285Y-97127142D01*
X127362857Y-97184285D01*
X127362857Y-97327142D01*
X127334285Y-97384285D01*
X127305714Y-97412857D01*
X127248571Y-97441428D01*
X127077142Y-97441428D01*
X127020000Y-97412857D01*
X126991428Y-97384285D01*
X124891428Y-95412857D02*
X124977142Y-95441428D01*
X125120000Y-95441428D01*
X125177142Y-95412857D01*
X125205714Y-95384285D01*
X125234285Y-95327142D01*
X125234285Y-95270000D01*
X125205714Y-95212857D01*
X125177142Y-95184285D01*
X125120000Y-95155714D01*
X125005714Y-95127142D01*
X124948571Y-95098571D01*
X124920000Y-95070000D01*
X124891428Y-95012857D01*
X124891428Y-94955714D01*
X124920000Y-94898571D01*
X124948571Y-94870000D01*
X125005714Y-94841428D01*
X125148571Y-94841428D01*
X125234285Y-94870000D01*
X125834285Y-95384285D02*
X125805714Y-95412857D01*
X125720000Y-95441428D01*
X125662857Y-95441428D01*
X125577142Y-95412857D01*
X125520000Y-95355714D01*
X125491428Y-95298571D01*
X125462857Y-95184285D01*
X125462857Y-95098571D01*
X125491428Y-94984285D01*
X125520000Y-94927142D01*
X125577142Y-94870000D01*
X125662857Y-94841428D01*
X125720000Y-94841428D01*
X125805714Y-94870000D01*
X125834285Y-94898571D01*
X126377142Y-95441428D02*
X126091428Y-95441428D01*
X126091428Y-94841428D01*
X126434285Y-95498571D02*
X126891428Y-95498571D01*
X126977142Y-94841428D02*
X127348571Y-94841428D01*
X127148571Y-95070000D01*
X127234285Y-95070000D01*
X127291428Y-95098571D01*
X127320000Y-95127142D01*
X127348571Y-95184285D01*
X127348571Y-95327142D01*
X127320000Y-95384285D01*
X127291428Y-95412857D01*
X127234285Y-95441428D01*
X127062857Y-95441428D01*
X127005714Y-95412857D01*
X126977142Y-95384285D01*
X125662857Y-92870000D02*
X125605714Y-92841428D01*
X125520000Y-92841428D01*
X125434285Y-92870000D01*
X125377142Y-92927142D01*
X125348571Y-92984285D01*
X125320000Y-93098571D01*
X125320000Y-93184285D01*
X125348571Y-93298571D01*
X125377142Y-93355714D01*
X125434285Y-93412857D01*
X125520000Y-93441428D01*
X125577142Y-93441428D01*
X125662857Y-93412857D01*
X125691428Y-93384285D01*
X125691428Y-93184285D01*
X125577142Y-93184285D01*
X125948571Y-93441428D02*
X125948571Y-92841428D01*
X126291428Y-93441428D01*
X126291428Y-92841428D01*
X126577142Y-93441428D02*
X126577142Y-92841428D01*
X126720000Y-92841428D01*
X126805714Y-92870000D01*
X126862857Y-92927142D01*
X126891428Y-92984285D01*
X126920000Y-93098571D01*
X126920000Y-93184285D01*
X126891428Y-93298571D01*
X126862857Y-93355714D01*
X126805714Y-93412857D01*
X126720000Y-93441428D01*
X126577142Y-93441428D01*
X125262857Y-90841428D02*
X125634285Y-90841428D01*
X125434285Y-91070000D01*
X125520000Y-91070000D01*
X125577142Y-91098571D01*
X125605714Y-91127142D01*
X125634285Y-91184285D01*
X125634285Y-91327142D01*
X125605714Y-91384285D01*
X125577142Y-91412857D01*
X125520000Y-91441428D01*
X125348571Y-91441428D01*
X125291428Y-91412857D01*
X125262857Y-91384285D01*
X125891428Y-91384285D02*
X125920000Y-91412857D01*
X125891428Y-91441428D01*
X125862857Y-91412857D01*
X125891428Y-91384285D01*
X125891428Y-91441428D01*
X126120000Y-90841428D02*
X126491428Y-90841428D01*
X126291428Y-91070000D01*
X126377142Y-91070000D01*
X126434285Y-91098571D01*
X126462857Y-91127142D01*
X126491428Y-91184285D01*
X126491428Y-91327142D01*
X126462857Y-91384285D01*
X126434285Y-91412857D01*
X126377142Y-91441428D01*
X126205714Y-91441428D01*
X126148571Y-91412857D01*
X126120000Y-91384285D01*
X126691428Y-91041428D02*
X126834285Y-91441428D01*
X126977142Y-91041428D01*
X124977142Y-89441428D02*
X124977142Y-88841428D01*
X125377142Y-88841428D02*
X125491428Y-88841428D01*
X125548571Y-88870000D01*
X125605714Y-88927142D01*
X125634285Y-89041428D01*
X125634285Y-89241428D01*
X125605714Y-89355714D01*
X125548571Y-89412857D01*
X125491428Y-89441428D01*
X125377142Y-89441428D01*
X125320000Y-89412857D01*
X125262857Y-89355714D01*
X125234285Y-89241428D01*
X125234285Y-89041428D01*
X125262857Y-88927142D01*
X125320000Y-88870000D01*
X125377142Y-88841428D01*
X125862857Y-89270000D02*
X126148571Y-89270000D01*
X125805714Y-89441428D02*
X126005714Y-88841428D01*
X126205714Y-89441428D01*
X126377142Y-88898571D02*
X126405714Y-88870000D01*
X126462857Y-88841428D01*
X126605714Y-88841428D01*
X126662857Y-88870000D01*
X126691428Y-88898571D01*
X126720000Y-88955714D01*
X126720000Y-89012857D01*
X126691428Y-89098571D01*
X126348571Y-89441428D01*
X126720000Y-89441428D01*
X126920000Y-88841428D02*
X127320000Y-88841428D01*
X127062857Y-89441428D01*
X125220000Y-87441428D02*
X125220000Y-86841428D01*
X125620000Y-86841428D02*
X125734285Y-86841428D01*
X125791428Y-86870000D01*
X125848571Y-86927142D01*
X125877142Y-87041428D01*
X125877142Y-87241428D01*
X125848571Y-87355714D01*
X125791428Y-87412857D01*
X125734285Y-87441428D01*
X125620000Y-87441428D01*
X125562857Y-87412857D01*
X125505714Y-87355714D01*
X125477142Y-87241428D01*
X125477142Y-87041428D01*
X125505714Y-86927142D01*
X125562857Y-86870000D01*
X125620000Y-86841428D01*
X126334285Y-87127142D02*
X126420000Y-87155714D01*
X126448571Y-87184285D01*
X126477142Y-87241428D01*
X126477142Y-87327142D01*
X126448571Y-87384285D01*
X126420000Y-87412857D01*
X126362857Y-87441428D01*
X126134285Y-87441428D01*
X126134285Y-86841428D01*
X126334285Y-86841428D01*
X126391428Y-86870000D01*
X126420000Y-86898571D01*
X126448571Y-86955714D01*
X126448571Y-87012857D01*
X126420000Y-87070000D01*
X126391428Y-87098571D01*
X126334285Y-87127142D01*
X126134285Y-87127142D01*
X126820000Y-87098571D02*
X126762857Y-87070000D01*
X126734285Y-87041428D01*
X126705714Y-86984285D01*
X126705714Y-86955714D01*
X126734285Y-86898571D01*
X126762857Y-86870000D01*
X126820000Y-86841428D01*
X126934285Y-86841428D01*
X126991428Y-86870000D01*
X127020000Y-86898571D01*
X127048571Y-86955714D01*
X127048571Y-86984285D01*
X127020000Y-87041428D01*
X126991428Y-87070000D01*
X126934285Y-87098571D01*
X126820000Y-87098571D01*
X126762857Y-87127142D01*
X126734285Y-87155714D01*
X126705714Y-87212857D01*
X126705714Y-87327142D01*
X126734285Y-87384285D01*
X126762857Y-87412857D01*
X126820000Y-87441428D01*
X126934285Y-87441428D01*
X126991428Y-87412857D01*
X127020000Y-87384285D01*
X127048571Y-87327142D01*
X127048571Y-87212857D01*
X127020000Y-87155714D01*
X126991428Y-87127142D01*
X126934285Y-87098571D01*
X125234285Y-85441428D02*
X125034285Y-85155714D01*
X124891428Y-85441428D02*
X124891428Y-84841428D01*
X125120000Y-84841428D01*
X125177142Y-84870000D01*
X125205714Y-84898571D01*
X125234285Y-84955714D01*
X125234285Y-85041428D01*
X125205714Y-85098571D01*
X125177142Y-85127142D01*
X125120000Y-85155714D01*
X124891428Y-85155714D01*
X125434285Y-84841428D02*
X125834285Y-85441428D01*
X125834285Y-84841428D02*
X125434285Y-85441428D01*
X126377142Y-85441428D02*
X126034285Y-85441428D01*
X126205714Y-85441428D02*
X126205714Y-84841428D01*
X126148571Y-84927142D01*
X126091428Y-84984285D01*
X126034285Y-85012857D01*
X124877142Y-82841428D02*
X125220000Y-82841428D01*
X125048571Y-83441428D02*
X125048571Y-82841428D01*
X125362857Y-82841428D02*
X125762857Y-83441428D01*
X125762857Y-82841428D02*
X125362857Y-83441428D01*
X126305714Y-83441428D02*
X125962857Y-83441428D01*
X126134285Y-83441428D02*
X126134285Y-82841428D01*
X126077142Y-82927142D01*
X126020000Y-82984285D01*
X125962857Y-83012857D01*
X125162857Y-80870000D02*
X125105714Y-80841428D01*
X125020000Y-80841428D01*
X124934285Y-80870000D01*
X124877142Y-80927142D01*
X124848571Y-80984285D01*
X124820000Y-81098571D01*
X124820000Y-81184285D01*
X124848571Y-81298571D01*
X124877142Y-81355714D01*
X124934285Y-81412857D01*
X125020000Y-81441428D01*
X125077142Y-81441428D01*
X125162857Y-81412857D01*
X125191428Y-81384285D01*
X125191428Y-81184285D01*
X125077142Y-81184285D01*
X125448571Y-81441428D02*
X125448571Y-80841428D01*
X125791428Y-81441428D01*
X125791428Y-80841428D01*
X126077142Y-81441428D02*
X126077142Y-80841428D01*
X126220000Y-80841428D01*
X126305714Y-80870000D01*
X126362857Y-80927142D01*
X126391428Y-80984285D01*
X126420000Y-81098571D01*
X126420000Y-81184285D01*
X126391428Y-81298571D01*
X126362857Y-81355714D01*
X126305714Y-81412857D01*
X126220000Y-81441428D01*
X126077142Y-81441428D01*
X124905714Y-78841428D02*
X125105714Y-79441428D01*
X125305714Y-78841428D01*
X125762857Y-79412857D02*
X125705714Y-79441428D01*
X125591428Y-79441428D01*
X125534285Y-79412857D01*
X125505714Y-79384285D01*
X125477142Y-79327142D01*
X125477142Y-79155714D01*
X125505714Y-79098571D01*
X125534285Y-79070000D01*
X125591428Y-79041428D01*
X125705714Y-79041428D01*
X125762857Y-79070000D01*
X126277142Y-79412857D02*
X126220000Y-79441428D01*
X126105714Y-79441428D01*
X126048571Y-79412857D01*
X126020000Y-79384285D01*
X125991428Y-79327142D01*
X125991428Y-79155714D01*
X126020000Y-79098571D01*
X126048571Y-79070000D01*
X126105714Y-79041428D01*
X126220000Y-79041428D01*
X126277142Y-79070000D01*
%TD*%
M02*
